<?xml version="1.0" encoding="UTF-8" standalone="no"?>
<!-- Created with Inkscape (http://www.inkscape.org/) -->

<svg
   version="1.0"
   width="166.3804"
   height="191.81873"
   id="svg2811"
   inkscape:version="1.1.2 (0a00cf5339, 2022-02-04)"
   sodipodi:docname="logo.svg"
   inkscape:export-filename="/home/pacha/GitHub/gravity/docs/apple.png"
   inkscape:export-xdpi="90"
   inkscape:export-ydpi="90"
   xmlns:inkscape="http://www.inkscape.org/namespaces/inkscape"
   xmlns:sodipodi="http://sodipodi.sourceforge.net/DTD/sodipodi-0.dtd"
   xmlns:xlink="http://www.w3.org/1999/xlink"
   xmlns="http://www.w3.org/2000/svg"
   xmlns:svg="http://www.w3.org/2000/svg"
   xmlns:rdf="http://www.w3.org/1999/02/22-rdf-syntax-ns#"
   xmlns:cc="http://creativecommons.org/ns#"
   xmlns:dc="http://purl.org/dc/elements/1.1/">
  <metadata
     id="metadata17">
    <rdf:RDF>
      <cc:Work
         rdf:about="">
        <dc:format>image/svg+xml</dc:format>
        <dc:type
           rdf:resource="http://purl.org/dc/dcmitype/StillImage" />
        <dc:title />
      </cc:Work>
    </rdf:RDF>
  </metadata>
  <sodipodi:namedview
     pagecolor="#ffffff"
     bordercolor="#666666"
     borderopacity="1"
     objecttolerance="10"
     gridtolerance="10"
     guidetolerance="10"
     inkscape:pageopacity="0"
     inkscape:pageshadow="2"
     inkscape:window-width="1920"
     inkscape:window-height="1043"
     id="namedview15"
     showgrid="false"
     fit-margin-top="0"
     fit-margin-left="0"
     fit-margin-right="0"
     fit-margin-bottom="0"
     inkscape:zoom="3.6203869"
     inkscape:cx="50.408978"
     inkscape:cy="71.263103"
     inkscape:window-x="0"
     inkscape:window-y="0"
     inkscape:window-maximized="1"
     inkscape:current-layer="g49667"
     showguides="true"
     inkscape:guide-bbox="true"
     inkscape:measure-start="0,0"
     inkscape:measure-end="0,0"
     inkscape:pagecheckerboard="0">
    <sodipodi:guide
       position="150.73003,-303.81494"
       orientation="0,1"
       id="guide903"
       inkscape:locked="false" />
  </sodipodi:namedview>
  <defs
     id="defs2813">
    <inkscape:perspective
       sodipodi:type="inkscape:persp3d"
       inkscape:vp_x="0 : 882.13641 : 1"
       inkscape:vp_y="0 : 1000 : 0"
       inkscape:vp_z="1500 : 882.13641 : 1"
       inkscape:persp3d-origin="750 : 588.09094 : 1"
       id="perspective4362" />
    <clipPath
       id="clp12">
      <path
         d="m 45.315,71.927 h 12.92 v 15.867 h -12.92 z"
         id="path184"
         inkscape:connector-curvature="0" />
    </clipPath>
    <clipPath
       id="clp21">
      <path
         d="m 123.91,72.178 h 26.23 v 15.294 h -26.23 z"
         id="path592"
         inkscape:connector-curvature="0" />
    </clipPath>
    <clipPath
       id="clp9">
      <path
         d="m 413.96,49.857 h 31.76 v 8.719 h -31.76 z"
         id="path100"
         inkscape:connector-curvature="0" />
    </clipPath>
    <inkscape:perspective
       id="perspective4362-3"
       inkscape:persp3d-origin="750 : 588.09094 : 1"
       inkscape:vp_z="1500 : 882.13641 : 1"
       inkscape:vp_y="0 : 1000 : 0"
       inkscape:vp_x="0 : 882.13641 : 1"
       sodipodi:type="inkscape:persp3d" />
    <clipPath
       id="clp12-5">
      <path
         inkscape:connector-curvature="0"
         id="path184-6"
         d="m 45.315,71.927 h 12.92 v 15.867 h -12.92 z" />
    </clipPath>
    <clipPath
       id="clp21-2">
      <path
         inkscape:connector-curvature="0"
         id="path592-9"
         d="m 123.91,72.178 h 26.23 v 15.294 h -26.23 z" />
    </clipPath>
    <clipPath
       id="clp9-1">
      <path
         inkscape:connector-curvature="0"
         id="path100-2"
         d="m 413.96,49.857 h 31.76 v 8.719 h -31.76 z" />
    </clipPath>
    <linearGradient
       xlink:href="#0-7"
       gradientUnits="userSpaceOnUse"
       y2="545.15002"
       x2="0"
       y1="518.08002"
       id="0">
      <stop
         id="stop7"
         stop-color="#faf7f7" />
      <stop
         id="stop9"
         stop-color="#d4d4d4"
         offset="1" />
    </linearGradient>
    <linearGradient
       gradientUnits="userSpaceOnUse"
       y2="518.08002"
       x2="402.47"
       y1="545.15002"
       x1="403.44"
       id="1">
      <stop
         id="stop12"
         stop-color="#d3d3d3" />
      <stop
         id="stop14"
         stop-color="#fcf9f9"
         offset="1" />
    </linearGradient>
    <linearGradient
       y2="155.59"
       x2="20.030001"
       y1="261.26001"
       x1="18.6"
       gradientUnits="userSpaceOnUse"
       id="0-7"
       gradientTransform="matrix(0.43355,0,0,0.43481,-57.018323,-61.893693)">
      <stop
         id="stop11"
         stop-color="#2a2c2f" />
      <stop
         id="stop13"
         stop-color="#424649"
         offset="1" />
    </linearGradient>
    <clipPath
       id="id3">
      <path
         id="path16946"
         d="m 11600200,27707200 c 0,0 -65220,-175610 -667340,-130470 -572020,45170 -898140,40160 -998510,0 -105370,-40130 -195680,-65210 -341190,-95310 -120440,-20090 -366300,-45180 -301050,-40170 -125420,-15030 -240850,0 -240850,0 0,0 -25070,20080 40150,-85300 55200,-85300 170600,-125410 321110,-301060 48730,-56850 805430,-12790 863020,0 70270,15070 150550,10060 180660,0 30090,-10020 371280,-15030 521830,0 185200,40290 451640,57960 492000,57520 105900,-1160 145240,103060 160260,273650 15070,175630 25110,65250 -30090,321140 z"
         inkscape:connector-curvature="0" />
    </clipPath>
    <clipPath
       id="id2">
      <path
         id="path16943"
         d="m 11018100,29368000 c 0,0 -371290,90310 -426490,-40170 -30100,-65200 -50150,-566970 -275970,-727530 -230830,-155570 -332600,-290020 -824420,-666110 -150640,-115190 -294530,-196920 -349680,-292240 -40170,-70260 -45180,-165580 -90340,-200730 0,0 281020,-30100 732580,80280 0,0 -65250,220780 80290,296050 80280,40130 265950,316130 551940,451580 270920,125450 436500,577030 521800,822900 95360,270960 80290,275970 80290,275970 z"
         inkscape:connector-curvature="0" />
    </clipPath>
    <clipPath
       id="id1">
      <path
         id="path16940"
         d="m 9673400,29448300 c 0,0 361270,-70260 426490,-40160 65220,35150 135470,-411450 366280,-571980 265950,-180650 702480,-521840 1133980,-1128970 0,0 -95320,-175610 -516800,-120410 0,0 -10060,205710 -55180,285990 -50190,80290 -275970,411450 -562000,521830 -285990,110360 -506780,426490 -602090,697450 -95320,270960 -190680,356250 -190680,356250 z"
         inkscape:connector-curvature="0" />
    </clipPath>
    <linearGradient
       id="linearGradient13037">
      <stop
         id="stop13039"
         offset="0"
         style="stop-color:#999;stop-opacity:1" />
      <stop
         id="stop13041"
         offset="1"
         style="stop-color:#525252;stop-opacity:1" />
    </linearGradient>
    <linearGradient
       id="linearGradient12124">
      <stop
         id="stop12126"
         offset="0"
         style="stop-color:#4a4a4a;stop-opacity:1" />
      <stop
         id="stop12128"
         offset="1"
         style="stop-color:#adadad;stop-opacity:1" />
    </linearGradient>
    <linearGradient
       id="linearGradient11217">
      <stop
         id="stop11219"
         offset="0"
         style="stop-color:#999;stop-opacity:1" />
      <stop
         id="stop11221"
         offset="1"
         style="stop-color:white;stop-opacity:1" />
    </linearGradient>
    <linearGradient
       xlink:href="#linearGradient1012"
       id="linearGradient871" />
    <linearGradient
       gradientUnits="userSpaceOnUse"
       xlink:href="#linearGradient865"
       id="linearGradient1011"
       y2="24.17461"
       x2="53.211624"
       y1="180.92995"
       x1="77.291656" />
    <linearGradient
       gradientUnits="userSpaceOnUse"
       xlink:href="#linearGradient865"
       id="linearGradient1010"
       y2="40.053986"
       x2="38.977112"
       y1="-53.39077"
       x1="43.39798" />
    <linearGradient
       gradientTransform="scale(1.069323,0.935172)"
       gradientUnits="userSpaceOnUse"
       xlink:href="#linearGradient865"
       id="linearGradient870"
       y2="112.48578"
       x2="88.360741"
       y1="199.48994"
       x1="178.42355" />
    <linearGradient
       gradientTransform="scale(1.108489,0.902129)"
       gradientUnits="userSpaceOnUse"
       xlink:href="#linearGradient865"
       id="linearGradient864"
       y2="46.947098"
       x2="82.344437"
       y1="25.611177"
       x1="105.80702" />
    <radialGradient
       gradientUnits="userSpaceOnUse"
       xlink:href="#linearGradient1400"
       id="radialGradient858"
       fy="77.944687"
       fx="79.895966"
       r="68.379425"
       cy="77.944687"
       cx="79.895966" />
    <radialGradient
       gradientUnits="userSpaceOnUse"
       xlink:href="#linearGradient853"
       id="radialGradient852"
       fy="325.7662"
       fx="240.38737"
       r="200.73203"
       cy="477.83307"
       cx="227.00549" />
    <linearGradient
       id="linearGradient849">
      <stop
         id="stop850"
         offset="0"
         style="stop-color:white;stop-opacity:1" />
      <stop
         id="stop861"
         offset="0.3804014"
         style="stop-color:#1d1d1d;stop-opacity:0.56078434" />
      <stop
         id="stop862"
         offset="0.510472"
         style="stop-color:black;stop-opacity:0.30208334" />
      <stop
         id="stop860"
         offset="0.64054263"
         style="stop-color:black;stop-opacity:0.21568628" />
      <stop
         id="stop851"
         offset="1"
         style="stop-color:black;stop-opacity:0" />
    </linearGradient>
    <linearGradient
       id="linearGradient853">
      <stop
         id="stop1185"
         offset="0"
         style="stop-color:#477daf;stop-opacity:1" />
      <stop
         id="stop855"
         offset="1"
         style="stop-color:#020407;stop-opacity:1" />
    </linearGradient>
    <linearGradient
       id="linearGradient865">
      <stop
         id="stop866"
         offset="0"
         style="stop-color:white;stop-opacity:1" />
      <stop
         id="stop868"
         offset="1"
         style="stop-color:white;stop-opacity:0" />
    </linearGradient>
    <linearGradient
       id="linearGradient1012">
      <stop
         id="stop1013"
         offset="0"
         style="stop-color:black;stop-opacity:0.30578512" />
      <stop
         id="stop1014"
         offset="1"
         style="stop-color:black;stop-opacity:0" />
    </linearGradient>
    <linearGradient
       id="linearGradient1400">
      <stop
         id="stop1401"
         offset="0"
         style="stop-color:black;stop-opacity:0.67843139" />
      <stop
         id="stop1403"
         offset="0.56999999"
         style="stop-color:black;stop-opacity:0.32941177" />
      <stop
         id="stop1402"
         offset="1"
         style="stop-color:black;stop-opacity:0" />
    </linearGradient>
    <linearGradient
       gradientTransform="matrix(0.512474,0,0,0.512474,372.9769,173.2066)"
       gradientUnits="userSpaceOnUse"
       xlink:href="#linearGradient12124"
       id="linearGradient25235"
       y2="145.21245"
       x2="271.66251"
       y1="148.31908"
       x1="250.91864" />
    <linearGradient
       gradientTransform="matrix(0.512474,0,0,0.512474,372.9769,173.2066)"
       gradientUnits="userSpaceOnUse"
       xlink:href="#linearGradient11217"
       id="linearGradient25237"
       y2="125.60667"
       x2="177.69412"
       y1="167.02818"
       x1="250.95844" />
    <radialGradient
       gradientUnits="userSpaceOnUse"
       xlink:href="#linearGradient853"
       id="radialGradient25239"
       fy="325.7662"
       fx="240.38737"
       r="200.73203"
       cy="477.83307"
       cx="227.00549" />
    <linearGradient
       gradientTransform="matrix(0.183763,0,0,0.160709,234.2744,84.58468)"
       gradientUnits="userSpaceOnUse"
       xlink:href="#linearGradient865"
       id="linearGradient25241"
       y2="112.48578"
       x2="88.360741"
       y1="199.48994"
       x1="178.42355" />
    <linearGradient
       gradientTransform="matrix(-0.190494,0,0,0.155031,262.187,84.58468)"
       gradientUnits="userSpaceOnUse"
       xlink:href="#linearGradient865"
       id="linearGradient25243"
       y2="46.947098"
       x2="82.344437"
       y1="25.611177"
       x1="105.80702" />
    <linearGradient
       gradientTransform="matrix(0.512474,0,0,0.512474,372.569,173.2066)"
       gradientUnits="userSpaceOnUse"
       xlink:href="#linearGradient11217"
       id="linearGradient25247"
       y2="206.15578"
       x2="250.27042"
       y1="217.04466"
       x1="250.27271" />
    <linearGradient
       gradientTransform="matrix(0.512474,0,0,0.512474,372.5444,173.2066)"
       gradientUnits="userSpaceOnUse"
       xlink:href="#linearGradient12124"
       id="linearGradient25249"
       y2="216.97914"
       x2="249.15353"
       y1="232.72697"
       x1="249.06598" />
    <linearGradient
       gradientTransform="matrix(0.512474,0,0,0.512474,372.5691,182.9379)"
       gradientUnits="userSpaceOnUse"
       xlink:href="#linearGradient13037"
       id="linearGradient25251"
       y2="206.15578"
       x2="250.27042"
       y1="217.04466"
       x1="250.27271" />
  </defs>
  <g
     transform="translate(1996.8631,-3007.9065)"
     id="layer1">
    <g
       transform="translate(19.48863,19.49672)"
       id="g25472">
      <g
         id="g4353"
         transform="matrix(0.67573771,0,0,0.67573771,374.45067,977.3331)">
        <g
           transform="translate(80.542606)"
           id="g4347">
          <text
             xml:space="preserve"
             style="font-style:normal;font-weight:normal;font-size:59.1946px;line-height:1.25;font-family:sans-serif;letter-spacing:0px;word-spacing:0px;fill:#000000;fill-opacity:1;stroke:none;stroke-width:1.47986"
             x="-3557.9272"
             y="3134.1738"
             id="text65" />
          <g
             id="g409"
             transform="rotate(30,-3495.4951,3118.0532)">
            <g
               id="g474">
              <g
                 id="g499"
                 transform="matrix(1.1493374,0,0,1.1493374,519.92338,-449.13226)">
                <g
                   id="g547"
                   transform="matrix(0.95294218,0,0,0.95294218,-159.12099,158.76149)">
                  <g
                     id="g609"
                     transform="translate(0.30322862,0.52510272)" />
                </g>
              </g>
              <g
                 id="g725">
                <g
                   id="g812"
                   transform="rotate(60,-3495.4951,3118.053)">
                  <g
                     id="g879"
                     transform="rotate(-30,-3495.4951,3118.053)">
                    <path
                       transform="matrix(0,0.08149567,-0.08132553,0,-3512.1283,3570.4529)"
                       inkscape:transform-center-y="7.9344316e-05"
                       inkscape:transform-center-x="1.5731476e-05"
                       d="m -4700.408,1269.1126 -1701.6109,-10e-5 -850.8053,-1473.63823 850.8055,-1473.63817 1701.6108,10e-5 850.8054,1473.63823 z"
                       inkscape:randomized="0"
                       inkscape:rounded="0"
                       inkscape:flatsided="true"
                       sodipodi:arg2="1.5707963"
                       sodipodi:arg1="1.0471976"
                       sodipodi:r2="1473.6381"
                       sodipodi:r1="1701.6108"
                       sodipodi:cy="-204.52565"
                       sodipodi:cx="-5551.2134"
                       sodipodi:sides="6"
                       id="path4524"
                       style="fill:#a31f36;fill-opacity:1;stroke:#2c2a29;stroke-width:73.99573138;stroke-miterlimit:4;stroke-dasharray:none;stroke-opacity:1"
                       sodipodi:type="star" />
                    <g
                       id="g47301"
                       transform="translate(-0.9053175,-0.5226853)">
                      <g
                         id="g48683"
                         transform="translate(12.931277,7.4659856)">
                        <g
                           id="g48862"
                           transform="translate(6.1611656,3.5571506)">
                          <g
                             id="g49667"
                             transform="translate(-3.605677,-2.0817386)">
                            <g
                               id="g49875"
                               transform="translate(0.37091278,0.21414651)">
                              <g
                                 id="g49042"
                                 transform="translate(-3.470587,-2.0037443)">
                                <g
                                   aria-label="EconomicComplexity"
                                   transform="rotate(-59.999999,-12.322359,7.1143175)"
                                   id="text1840"
                                   style="font-size:23.6778px;font-family:'Fira Mono';-inkscape-font-specification:'Fira Mono';fill:#ffffff;stroke-width:1.48219;stroke-linecap:round;stroke-linejoin:round">
                                <path
                                   d="m -4532.4718,-1421.1817 h -8.6661 v 16.4088 h 8.595 v -2.6993 h -4.8776 v -4.3331 h 4.0252 v -2.6045 h -4.0252 v -4.12 h 4.5698 z"
                                   style="font-weight:bold;font-family:'Fira Sans Compressed';-inkscape-font-specification:'Fira Sans Compressed Bold';text-align:center;text-anchor:middle"
                                   id="path47440" />
                                <path
                                   d="m -4526.5051,-1417.7484 c -3.2675,0 -5.3511,2.5335 -5.3511,6.7955 0,4.3804 2.0363,6.5825 5.3985,6.5825 1.468,0 2.6282,-0.592 3.5517,-1.4681 l -1.5391,-2.0599 c -0.663,0.4972 -1.1365,0.734 -1.7995,0.734 -1.0892,0 -1.8942,-0.734 -1.8942,-3.8121 0,-3.1729 0.7103,-4.0489 1.9179,-4.0489 0.6393,0 1.2076,0.2604 1.8469,0.7813 l 1.468,-1.9652 c -0.9945,-1.0182 -2.131,-1.5391 -3.5991,-1.5391 z"
                                   style="font-weight:bold;font-family:'Fira Sans Compressed';-inkscape-font-specification:'Fira Sans Compressed Bold';text-align:center;text-anchor:middle"
                                   id="path47442" />
                                <path
                                   d="m -4517.6022,-1417.7484 c -3.2439,0 -5.2328,2.2968 -5.2328,6.6772 0,4.4987 2.0126,6.7008 5.2328,6.7008 3.2438,0 5.2328,-2.3915 5.2328,-6.6772 0,-4.5698 -2.0363,-6.7008 -5.2328,-6.7008 z m 0,2.6519 c 1.0655,0 1.5627,0.9708 1.5627,4.0489 0,3.0308 -0.4972,4.0489 -1.5627,4.0489 -1.0655,0 -1.5628,-0.9708 -1.5628,-4.0725 0,-3.0071 0.4973,-4.0253 1.5628,-4.0253 z"
                                   style="font-weight:bold;font-family:'Fira Sans Compressed';-inkscape-font-specification:'Fira Sans Compressed Bold';text-align:center;text-anchor:middle"
                                   id="path47444" />
                                <path
                                   d="m -4504.248,-1417.7484 c -1.3496,0 -2.273,0.663 -3.0781,1.8942 l -0.2604,-1.4917 h -3.1018 v 12.573 h 3.5753 v -8.7372 c 0.4973,-0.9234 0.9945,-1.5153 1.4917,-1.5153 0.4262,0 0.6867,0.3551 0.6867,1.2312 v 9.0213 h 3.5753 v -9.4001 c 0,-2.1784 -1.0892,-3.5754 -2.8887,-3.5754 z"
                                   style="font-weight:bold;font-family:'Fira Sans Compressed';-inkscape-font-specification:'Fira Sans Compressed Bold';text-align:center;text-anchor:middle"
                                   id="path47446" />
                                <path
                                   d="m -4494.5401,-1417.7484 c -3.2438,0 -5.2328,2.2968 -5.2328,6.6772 0,4.4987 2.0126,6.7008 5.2328,6.7008 3.2439,0 5.2328,-2.3915 5.2328,-6.6772 0,-4.5698 -2.0363,-6.7008 -5.2328,-6.7008 z m 0,2.6519 c 1.0655,0 1.5628,0.9708 1.5628,4.0489 0,3.0308 -0.4973,4.0489 -1.5628,4.0489 -1.0655,0 -1.5627,-0.9708 -1.5627,-4.0725 0,-3.0071 0.4972,-4.0253 1.5627,-4.0253 z"
                                   style="font-weight:bold;font-family:'Fira Sans Compressed';-inkscape-font-specification:'Fira Sans Compressed Bold';text-align:center;text-anchor:middle"
                                   id="path47448" />
                                <path
                                   d="m -4475.882,-1417.7484 c -1.2786,0 -2.2494,0.734 -3.0307,2.0126 -0.4262,-1.2786 -1.2786,-2.0126 -2.4389,-2.0126 -1.2312,0 -2.1783,0.6867 -2.9597,1.9179 l -0.2131,-1.5154 h -3.1018 v 12.573 h 3.4807 v -8.8792 c 0.4262,-0.8761 0.876,-1.397 1.3733,-1.397 0.4025,0 0.663,0.3552 0.663,1.2312 v 9.045 h 3.4569 v -8.8792 c 0.4262,-0.8761 0.8761,-1.397 1.3496,-1.397 0.4499,0 0.663,0.3552 0.663,1.2312 v 9.045 h 3.5043 v -9.4001 c 0,-2.1784 -1.0891,-3.5754 -2.7466,-3.5754 z"
                                   style="font-weight:bold;font-family:'Fira Sans Compressed';-inkscape-font-specification:'Fira Sans Compressed Bold';text-align:center;text-anchor:middle"
                                   id="path47450" />
                                <path
                                   d="m -4469.3469,-1423.8809 c -1.2076,0 -2.0363,0.876 -2.0363,2.0599 0,1.1602 0.8287,2.0363 2.0363,2.0363 1.2312,0 2.0363,-0.8761 2.0363,-2.0363 0,-1.1839 -0.8051,-2.0599 -2.0363,-2.0599 z m 1.8232,6.535 h -3.5754 v 12.573 h 3.5754 z"
                                   style="font-weight:bold;font-family:'Fira Sans Compressed';-inkscape-font-specification:'Fira Sans Compressed Bold';text-align:center;text-anchor:middle"
                                   id="path47452" />
                                <path
                                   d="m -4460.5151,-1417.7484 c -3.2675,0 -5.3512,2.5335 -5.3512,6.7955 0,4.3804 2.0363,6.5825 5.3986,6.5825 1.468,0 2.6282,-0.592 3.5516,-1.4681 l -1.539,-2.0599 c -0.663,0.4972 -1.1366,0.734 -1.7995,0.734 -1.0892,0 -1.8943,-0.734 -1.8943,-3.8121 0,-3.1729 0.7104,-4.0489 1.9179,-4.0489 0.6393,0 1.2076,0.2604 1.8469,0.7813 l 1.468,-1.9652 c -0.9944,-1.0182 -2.131,-1.5391 -3.599,-1.5391 z"
                                   style="font-weight:bold;font-family:'Fira Sans Compressed';-inkscape-font-specification:'Fira Sans Compressed Bold';text-align:center;text-anchor:middle"
                                   id="path47454" />
                                <path
                                   d="m -4450.0495,-1421.5842 c -3.6227,0 -6.2746,2.794 -6.2746,8.5714 0,5.8957 2.5808,8.6424 6.2272,8.6424 2.0126,0 3.528,-0.9945 4.5225,-2.0837 l -1.6812,-1.9889 c -0.805,0.663 -1.468,1.1839 -2.5098,1.1839 -1.6574,0 -2.6993,-1.4917 -2.6993,-5.7537 0,-4.3567 1.0419,-5.8011 2.6756,-5.8011 0.8998,0 1.6101,0.4262 2.3441,1.0655 l 1.7285,-2.0363 c -1.1839,-1.1365 -2.5335,-1.7995 -4.333,-1.7995 z"
                                   style="font-weight:bold;font-family:'Fira Sans Compressed';-inkscape-font-specification:'Fira Sans Compressed Bold';text-align:center;text-anchor:middle"
                                   id="path47456" />
                                <path
                                   d="m -4440.1522,-1417.7484 c -3.2439,0 -5.2328,2.2968 -5.2328,6.6772 0,4.4987 2.0126,6.7008 5.2328,6.7008 3.2438,0 5.2327,-2.3915 5.2327,-6.6772 0,-4.5698 -2.0362,-6.7008 -5.2327,-6.7008 z m 0,2.6519 c 1.0655,0 1.5627,0.9708 1.5627,4.0489 0,3.0308 -0.4972,4.0489 -1.5627,4.0489 -1.0655,0 -1.5628,-0.9708 -1.5628,-4.0725 0,-3.0071 0.4973,-4.0253 1.5628,-4.0253 z"
                                   style="font-weight:bold;font-family:'Fira Sans Compressed';-inkscape-font-specification:'Fira Sans Compressed Bold';text-align:center;text-anchor:middle"
                                   id="path47458" />
                                <path
                                   d="m -4421.4941,-1417.7484 c -1.2786,0 -2.2494,0.734 -3.0308,2.0126 -0.4262,-1.2786 -1.2786,-2.0126 -2.4388,-2.0126 -1.2313,0 -2.1784,0.6867 -2.9597,1.9179 l -0.2131,-1.5154 h -3.1018 v 12.573 h 3.4806 v -8.8792 c 0.4262,-0.8761 0.8761,-1.397 1.3733,-1.397 0.4025,0 0.663,0.3552 0.663,1.2312 v 9.045 h 3.4569 v -8.8792 c 0.4262,-0.8761 0.8761,-1.397 1.3497,-1.397 0.4499,0 0.663,0.3552 0.663,1.2312 v 9.045 h 3.5043 v -9.4001 c 0,-2.1784 -1.0892,-3.5754 -2.7466,-3.5754 z"
                                   style="font-weight:bold;font-family:'Fira Sans Compressed';-inkscape-font-specification:'Fira Sans Compressed Bold';text-align:center;text-anchor:middle"
                                   id="path47460" />
                                <path
                                   d="m -4410.3656,-1417.7484 c -1.2312,0 -2.202,0.5209 -3.0307,1.7759 l -0.1421,-1.3734 h -3.1728 v 17.8057 l 3.5753,-0.3788 v -5.7063 c 0.6393,0.8287 1.4444,1.2549 2.4388,1.2549 2.5099,0 4.12,-2.6046 4.12,-6.7245 0,-4.262 -1.3023,-6.6535 -3.7885,-6.6535 z m -1.3733,10.7261 c -0.5683,0 -1.0181,-0.3552 -1.397,-0.9708 v -5.8011 c 0.4025,-0.7814 0.9235,-1.3259 1.5391,-1.3259 0.8287,0 1.3496,0.734 1.3496,4.0725 0,3.1018 -0.6393,4.0253 -1.4917,4.0253 z"
                                   style="font-weight:bold;font-family:'Fira Sans Compressed';-inkscape-font-specification:'Fira Sans Compressed Bold';text-align:center;text-anchor:middle"
                                   id="path47462" />
                                <path
                                   d="m -4401.8653,-1404.3704 c 0.8051,0 1.5391,-0.2131 1.9889,-0.4499 l -0.6393,-2.4625 c -0.095,0.024 -0.2604,0.071 -0.4262,0.071 -0.3551,0 -0.4972,-0.2131 -0.4972,-0.5919 v -14.917 l -3.5753,0.3788 v 14.7039 c 0,1.989 1.1365,3.2676 3.1491,3.2676 z"
                                   style="font-weight:bold;font-family:'Fira Sans Compressed';-inkscape-font-specification:'Fira Sans Compressed Bold';text-align:center;text-anchor:middle"
                                   id="path47464" />
                                <path
                                   d="m -4389.4345,-1411.308 c 0,-4.3094 -1.9416,-6.4404 -4.9486,-6.4404 -3.3386,0 -5.0671,2.723 -5.0671,6.7719 0,4.0725 1.7995,6.6061 5.3986,6.6061 1.8231,0 3.2201,-0.7104 4.2383,-1.7048 l -1.468,-1.9416 c -0.8761,0.663 -1.6101,1.0181 -2.5099,1.0181 -1.1839,0 -1.9416,-0.5919 -2.1073,-3.007 h 6.393 c 0.047,-0.3552 0.071,-0.8998 0.071,-1.3023 z m -3.4806,-0.8524 h -2.9834 c 0.1184,-2.5572 0.6393,-3.2202 1.539,-3.2202 1.0892,0 1.4444,0.9708 1.4444,3.0544 z"
                                   style="font-weight:bold;font-family:'Fira Sans Compressed';-inkscape-font-specification:'Fira Sans Compressed Bold';text-align:center;text-anchor:middle"
                                   id="path47466" />
                                <path
                                   d="m -4381.9997,-1411.4974 2.7466,-5.8485 h -3.5753 l -1.3023,4.12 -1.3733,-4.12 h -3.6937 l 2.9597,5.9668 -3.2439,6.6062 h 3.6701 l 1.6338,-4.783 1.7284,4.783 h 3.7411 z"
                                   style="font-weight:bold;font-family:'Fira Sans Compressed';-inkscape-font-specification:'Fira Sans Compressed Bold';text-align:center;text-anchor:middle"
                                   id="path47468" />
                                <path
                                   d="m -4376.1276,-1423.8809 c -1.2076,0 -2.0363,0.876 -2.0363,2.0599 0,1.1602 0.8287,2.0363 2.0363,2.0363 1.2313,0 2.0363,-0.8761 2.0363,-2.0363 0,-1.1839 -0.805,-2.0599 -2.0363,-2.0599 z m 1.8232,6.535 h -3.5753 v 12.573 h 3.5753 z"
                                   style="font-weight:bold;font-family:'Fira Sans Compressed';-inkscape-font-specification:'Fira Sans Compressed Bold';text-align:center;text-anchor:middle"
                                   id="path47470" />
                                <path
                                   d="m -4366.4907,-1407.5433 c -0.3552,0.2131 -0.6393,0.3315 -1.0182,0.3315 -0.5682,0 -0.8524,-0.3551 -0.8524,-1.0181 v -6.6061 h 1.9653 l 0.3788,-2.5099 h -2.3441 v -3.1491 l -3.5753,0.4025 v 2.7466 h -1.3023 v 2.5099 h 1.3023 v 6.6298 c 0,2.2494 1.1365,3.8358 3.67,3.8358 1.0182,0 2.131,-0.3078 2.9598,-0.9945 z"
                                   style="font-weight:bold;font-family:'Fira Sans Compressed';-inkscape-font-specification:'Fira Sans Compressed Bold';text-align:center;text-anchor:middle"
                                   id="path47472" />
                                <path
                                   d="m -4354.9834,-1417.3459 h -3.528 l -1.9415,10.2762 -1.6575,-10.2762 h -3.599 l 3.0071,12.573 h 1.3259 c -0.5683,1.7284 -1.468,2.4388 -3.4569,2.7703 l 0.3788,2.4624 c 3.3859,-0.2367 5.3985,-2.0599 6.2036,-5.2091 z"
                                   style="font-weight:bold;font-family:'Fira Sans Compressed';-inkscape-font-specification:'Fira Sans Compressed Bold';text-align:center;text-anchor:middle"
                                   id="path47474" />
                                </g>
                              </g>
                              <g
                                 id="g49640"
                                 transform="matrix(0.8298335,0,0,0.8298335,-588.82984,525.92818)">
                                <g
                                   id="g49847">
                                <path
                                   style="fill:none;fill-opacity:1;stroke:#2c2a29;stroke-width:3.56665;stroke-linecap:round;stroke-linejoin:round;stroke-miterlimit:4;stroke-dasharray:none"
                                   d="m -3579.6219,3077.1107 55.2583,95.9104 v -127.8805 z"
                                   id="path49214" />
                                <ellipse
                                   style="fill:#ffffff;fill-opacity:1;stroke:#2c2a29;stroke-width:4.75554;stroke-linecap:round;stroke-linejoin:round;stroke-miterlimit:4;stroke-dasharray:none"
                                   id="path49496"
                                   cx="-4509.4785"
                                   cy="-1466.1859"
                                   transform="rotate(-59.999999)"
                                   rx="13.283255"
                                   ry="12.986729" />
                                <ellipse
                                   style="fill:#ffffff;fill-opacity:1;stroke:#2c2a29;stroke-width:4.75554;stroke-linecap:round;stroke-linejoin:round;stroke-miterlimit:4;stroke-dasharray:none"
                                   id="ellipse49578"
                                   cx="-4455.2969"
                                   cy="-1561.7981"
                                   transform="rotate(-59.999999)"
                                   rx="9.7534504"
                                   ry="9.7534513" />
                                <ellipse
                                   style="fill:#ffffff;fill-opacity:1;stroke:#2c2a29;stroke-width:4.75554;stroke-linecap:round;stroke-linejoin:round;stroke-miterlimit:4;stroke-dasharray:none"
                                   id="ellipse49580"
                                   cx="-4399.5869"
                                   cy="-1530.3778"
                                   transform="rotate(-59.999999)"
                                   rx="9.7534504"
                                   ry="9.7534513" />
                                </g>
                              </g>
                            </g>
                          </g>
                        </g>
                      </g>
                    </g>
                  </g>
                </g>
              </g>
            </g>
          </g>
        </g>
      </g>
    </g>
  </g>
</svg>
