<?xml version="1.0" encoding="UTF-8" standalone="no"?>
<!-- Created with Inkscape (http://www.inkscape.org/) -->

<svg
   xmlns:dc="http://purl.org/dc/elements/1.1/"
   xmlns:cc="http://creativecommons.org/ns#"
   xmlns:rdf="http://www.w3.org/1999/02/22-rdf-syntax-ns#"
   xmlns:svg="http://www.w3.org/2000/svg"
   xmlns="http://www.w3.org/2000/svg"
   xmlns:xlink="http://www.w3.org/1999/xlink"
   xmlns:sodipodi="http://sodipodi.sourceforge.net/DTD/sodipodi-0.dtd"
   xmlns:inkscape="http://www.inkscape.org/namespaces/inkscape"
   version="1.0"
   width="166.03305"
   height="192.11954"
   id="svg2811"
   inkscape:version="0.92.3 (2405546, 2018-03-11)"
   sodipodi:docname="hexicon.svg"
   inkscape:export-filename="/home/pacha/GitHub/gravity/docs/apple.png"
   inkscape:export-xdpi="90"
   inkscape:export-ydpi="90">
  <metadata
     id="metadata17">
    <rdf:RDF>
      <cc:Work
         rdf:about="">
        <dc:format>image/svg+xml</dc:format>
        <dc:type
           rdf:resource="http://purl.org/dc/dcmitype/StillImage" />
        <dc:title />
      </cc:Work>
    </rdf:RDF>
  </metadata>
  <sodipodi:namedview
     pagecolor="#ffffff"
     bordercolor="#666666"
     borderopacity="1"
     objecttolerance="10"
     gridtolerance="10"
     guidetolerance="10"
     inkscape:pageopacity="0"
     inkscape:pageshadow="2"
     inkscape:window-width="1366"
     inkscape:window-height="732"
     id="namedview15"
     showgrid="false"
     fit-margin-top="0"
     fit-margin-left="0"
     fit-margin-right="0"
     fit-margin-bottom="0"
     inkscape:zoom="1.1084035"
     inkscape:cx="41.219163"
     inkscape:cy="71.616449"
     inkscape:window-x="1600"
     inkscape:window-y="132"
     inkscape:window-maximized="1"
     inkscape:current-layer="g361"
     showguides="true"
     inkscape:guide-bbox="true"
     inkscape:measure-start="0,0"
     inkscape:measure-end="0,0" />
  <defs
     id="defs2813">
    <inkscape:perspective
       sodipodi:type="inkscape:persp3d"
       inkscape:vp_x="0 : 882.13641 : 1"
       inkscape:vp_y="0 : 1000 : 0"
       inkscape:vp_z="1500 : 882.13641 : 1"
       inkscape:persp3d-origin="750 : 588.09094 : 1"
       id="perspective4362" />
    <clipPath
       id="clp12">
      <path
         d="m 45.315,71.927 h 12.92 v 15.867 h -12.92 z"
         id="path184"
         inkscape:connector-curvature="0" />
    </clipPath>
    <clipPath
       id="clp21">
      <path
         d="m 123.91,72.178 h 26.23 v 15.294 h -26.23 z"
         id="path592"
         inkscape:connector-curvature="0" />
    </clipPath>
    <clipPath
       id="clp9">
      <path
         d="m 413.96,49.857 h 31.76 v 8.719 h -31.76 z"
         id="path100"
         inkscape:connector-curvature="0" />
    </clipPath>
    <inkscape:perspective
       id="perspective4362-3"
       inkscape:persp3d-origin="750 : 588.09094 : 1"
       inkscape:vp_z="1500 : 882.13641 : 1"
       inkscape:vp_y="0 : 1000 : 0"
       inkscape:vp_x="0 : 882.13641 : 1"
       sodipodi:type="inkscape:persp3d" />
    <clipPath
       id="clp12-5">
      <path
         inkscape:connector-curvature="0"
         id="path184-6"
         d="m 45.315,71.927 h 12.92 v 15.867 h -12.92 z" />
    </clipPath>
    <clipPath
       id="clp21-2">
      <path
         inkscape:connector-curvature="0"
         id="path592-9"
         d="m 123.91,72.178 h 26.23 v 15.294 h -26.23 z" />
    </clipPath>
    <clipPath
       id="clp9-1">
      <path
         inkscape:connector-curvature="0"
         id="path100-2"
         d="m 413.96,49.857 h 31.76 v 8.719 h -31.76 z" />
    </clipPath>
    <linearGradient
       xlink:href="#0-7"
       gradientUnits="userSpaceOnUse"
       y2="545.15002"
       x2="0"
       y1="518.08002"
       id="0">
      <stop
         id="stop7"
         stop-color="#faf7f7" />
      <stop
         id="stop9"
         stop-color="#d4d4d4"
         offset="1" />
    </linearGradient>
    <linearGradient
       gradientUnits="userSpaceOnUse"
       y2="518.08002"
       x2="402.47"
       y1="545.15002"
       x1="403.44"
       id="1">
      <stop
         id="stop12"
         stop-color="#d3d3d3" />
      <stop
         id="stop14"
         stop-color="#fcf9f9"
         offset="1" />
    </linearGradient>
    <linearGradient
       y2="155.59"
       x2="20.030001"
       y1="261.26001"
       x1="18.6"
       gradientUnits="userSpaceOnUse"
       id="0-7"
       gradientTransform="matrix(0.43355,0,0,0.43481,-57.018323,-61.893693)">
      <stop
         id="stop11"
         stop-color="#2a2c2f" />
      <stop
         id="stop13"
         stop-color="#424649"
         offset="1" />
    </linearGradient>
  </defs>
  <g
     transform="translate(1996.6894,-3007.7561)"
     id="layer1">
    <g
       transform="translate(19.48863,19.49672)"
       id="g25472">
      <g
         id="g4353"
         transform="matrix(0.67573771,0,0,0.67573771,374.45067,977.3331)">
        <g
           transform="translate(80.542606)"
           id="g4347">
          <g
             id="g79"
             transform="translate(8.0109432,4.5958121)"
             style="fill:#000000;stroke:#000000">
            <path
               transform="matrix(0,0.08149567,-0.08132553,0,-3520.1392,3565.8571)"
               inkscape:transform-center-y="7.9344316e-05"
               inkscape:transform-center-x="1.5731476e-05"
               d="m -4700.408,1269.1126 -1701.6109,-10e-5 -850.8053,-1473.63823 850.8055,-1473.63817 1701.6108,10e-5 850.8054,1473.63823 z"
               inkscape:randomized="0"
               inkscape:rounded="0"
               inkscape:flatsided="true"
               sodipodi:arg2="1.5707963"
               sodipodi:arg1="1.0471976"
               sodipodi:r2="1473.6381"
               sodipodi:r1="1701.6108"
               sodipodi:cy="-204.52565"
               sodipodi:cx="-5551.2134"
               sodipodi:sides="6"
               id="path4524"
               style="fill:#000000;fill-opacity:1;stroke:#000000;stroke-width:73.99320221;stroke-miterlimit:4;stroke-dasharray:none;stroke-opacity:1"
               sodipodi:type="star" />
          </g>
          <text
             xml:space="preserve"
             style="font-style:normal;font-weight:normal;font-size:59.19456482px;line-height:1.25;font-family:sans-serif;letter-spacing:0px;word-spacing:0px;fill:#000000;fill-opacity:1;stroke:none;stroke-width:1.47986412"
             x="-3557.9272"
             y="3134.1738"
             id="text65"><tspan
               sodipodi:role="line"
               id="tspan63"
               x="-3557.9272"
               y="3186.5471"
               style="stroke-width:1.47986412" /></text>
          <g
             aria-label="L"
             style="font-style:normal;font-weight:normal;font-size:59.19456482px;line-height:1.25;font-family:sans-serif;letter-spacing:0px;word-spacing:0px;fill:#000000;fill-opacity:1;stroke:none;stroke-width:1.47986412"
             id="text42"
             transform="translate(-5.6644826,-5.1924423)" />
          <g
             transform="translate(7.0806031,18.881609)"
             id="g86"
             style="font-style:normal;font-weight:normal;font-size:59.19456482px;line-height:1.25;font-family:sans-serif;letter-spacing:0px;word-spacing:0px;fill:#000000;fill-opacity:1;stroke:none;stroke-width:1.47986412"
             aria-label="L" />
          <g
             id="g361"
             transform="matrix(0.930113,0,0,0.930113,-243.67702,214.19106)">
            <g
               id="g388"
               transform="matrix(1.0011763,0,0,1.0011763,16.334435,-3.7641448)">
              <g
                 id="g356"
                 transform="matrix(0.7474681,0,0,0.7474681,-895.6603,817.87391)">
                <path
                   d="m -3566.1676,3139.2231 h 14.4712 v 3.6826 h -10.0624 v 3.8382 h 8.7138 v 3.5011 h -8.7138 v 4.4865 h 10.2439 v 3.7864 h -14.6527 z"
                   style="font-style:normal;font-variant:normal;font-weight:normal;font-stretch:normal;font-size:medium;line-height:0.89999998;font-family:'Neue Haas Grotesk Text Pro';-inkscape-font-specification:'Neue Haas Grotesk Text Pro';letter-spacing:0px;word-spacing:0px;fill:#ffffff;fill-opacity:1;stroke:none;stroke-width:0.64834857"
                   id="path44"
                   inkscape:connector-curvature="0" />
                <path
                   d="m -3542.7192,3158.9588 q -1.6598,0 -3.0084,-0.5446 -1.3226,-0.5706 -2.2822,-1.5561 -0.9336,-0.9855 -1.4523,-2.3081 -0.5186,-1.3486 -0.5186,-2.9046 0,-1.556 0.4927,-2.8787 0.5187,-1.3485 1.4523,-2.334 0.9336,-0.9855 2.2563,-1.5301 1.3226,-0.5706 2.9564,-0.5706 1.3745,0 2.4897,0.389 1.1151,0.3631 1.9191,1.0374 0.8299,0.6743 1.3486,1.6338 0.5186,0.9337 0.7002,2.0488 h -3.942 q -0.2075,-0.9595 -0.8299,-1.5041 -0.6224,-0.5706 -1.6338,-0.5706 -1.556,0 -2.3341,1.167 -0.752,1.1671 -0.752,3.1121 0,1.8932 0.752,3.0602 0.7781,1.167 2.3341,1.167 1.1411,0 1.7894,-0.6483 0.6743,-0.6484 0.804,-1.8413 h 3.916 q -0.052,1.167 -0.5446,2.2044 -0.4668,1.0114 -1.2967,1.7635 -0.8299,0.7521 -2.0228,1.167 -1.1671,0.4409 -2.5934,0.4409 z"
                   style="font-style:normal;font-variant:normal;font-weight:normal;font-stretch:normal;font-size:medium;line-height:0.89999998;font-family:'Neue Haas Grotesk Text Pro';-inkscape-font-specification:'Neue Haas Grotesk Text Pro';letter-spacing:0px;word-spacing:0px;fill:#ffffff;fill-opacity:1;stroke:none;stroke-width:0.64834857"
                   id="path46"
                   inkscape:connector-curvature="0" />
                <path
                   d="m -3527.725,3158.9588 q -1.6597,0 -3.0083,-0.5446 -1.3486,-0.5706 -2.3081,-1.5561 -0.9596,-0.9855 -1.4783,-2.3081 -0.5186,-1.3486 -0.5186,-2.9046 0,-1.556 0.5186,-2.8787 0.5187,-1.3485 1.4783,-2.334 0.9595,-0.9855 2.3081,-1.5301 1.3486,-0.5706 3.0083,-0.5706 1.6339,0 2.9824,0.5706 1.3486,0.5446 2.2822,1.5301 0.9596,0.9855 1.4783,2.334 0.5186,1.3227 0.5186,2.8787 0,1.556 -0.5186,2.9046 -0.5187,1.3226 -1.4783,2.3081 -0.9336,0.9855 -2.2822,1.5561 -1.3485,0.5446 -2.9824,0.5446 z m -0.026,-2.9565 q 1.5301,0 2.3341,-1.1929 0.8298,-1.2189 0.8298,-3.164 0,-1.971 -0.8298,-3.1899 -0.804,-1.2189 -2.3341,-1.2189 -1.556,0 -2.36,1.2189 -0.8039,1.2189 -0.8039,3.1899 0,1.9451 0.8039,3.164 0.804,1.1929 2.36,1.1929 z"
                   style="font-style:normal;font-variant:normal;font-weight:normal;font-stretch:normal;font-size:medium;line-height:0.89999998;font-family:'Neue Haas Grotesk Text Pro';-inkscape-font-specification:'Neue Haas Grotesk Text Pro';letter-spacing:0px;word-spacing:0px;fill:#ffffff;fill-opacity:1;stroke:none;stroke-width:0.64834857"
                   id="path48"
                   inkscape:connector-curvature="0" />
                <path
                   d="m -3514.4926,3146.8217 h 0.078 q 0.6484,-1.2448 1.7117,-1.8672 1.0892,-0.6225 2.5415,-0.6225 2.2822,0 3.527,1.4005 1.2708,1.3745 1.2708,3.7085 v 9.0769 h -4.0457 v -8.2989 q 0,-1.141 -0.5965,-1.8153 -0.5705,-0.7002 -1.7116,-0.7002 -1.193,0 -1.9192,0.8558 -0.7261,0.8558 -0.7261,2.1784 v 7.7802 h -4.0716 v -13.7969 h 3.9419 z"
                   style="font-style:normal;font-variant:normal;font-weight:normal;font-stretch:normal;font-size:medium;line-height:0.89999998;font-family:'Neue Haas Grotesk Text Pro';-inkscape-font-specification:'Neue Haas Grotesk Text Pro';letter-spacing:0px;word-spacing:0px;fill:#ffffff;fill-opacity:1;stroke:none;stroke-width:0.64834857"
                   id="path50"
                   inkscape:connector-curvature="0" />
                <path
                   d="m -3496.118,3158.9588 q -1.6597,0 -3.0083,-0.5446 -1.3486,-0.5706 -2.3081,-1.5561 -0.9596,-0.9855 -1.4783,-2.3081 -0.5186,-1.3486 -0.5186,-2.9046 0,-1.556 0.5186,-2.8787 0.5187,-1.3485 1.4783,-2.334 0.9595,-0.9855 2.3081,-1.5301 1.3486,-0.5706 3.0083,-0.5706 1.6339,0 2.9824,0.5706 1.3486,0.5446 2.2822,1.5301 0.9596,0.9855 1.4783,2.334 0.5186,1.3227 0.5186,2.8787 0,1.556 -0.5186,2.9046 -0.5187,1.3226 -1.4783,2.3081 -0.9336,0.9855 -2.2822,1.5561 -1.3485,0.5446 -2.9824,0.5446 z m -0.026,-2.9565 q 1.5301,0 2.3341,-1.1929 0.8298,-1.2189 0.8298,-3.164 0,-1.971 -0.8298,-3.1899 -0.804,-1.2189 -2.3341,-1.2189 -1.556,0 -2.36,1.2189 -0.8039,1.2189 -0.8039,3.1899 0,1.9451 0.8039,3.164 0.804,1.1929 2.36,1.1929 z"
                   style="font-style:normal;font-variant:normal;font-weight:normal;font-stretch:normal;font-size:medium;line-height:0.89999998;font-family:'Neue Haas Grotesk Text Pro';-inkscape-font-specification:'Neue Haas Grotesk Text Pro';letter-spacing:0px;word-spacing:0px;fill:#ffffff;fill-opacity:1;stroke:none;stroke-width:0.64834857"
                   id="path52"
                   inkscape:connector-curvature="0" />
                <path
                   d="m -3486.8275,3144.721 h 3.916 v 2.1526 h 0.078 q 0.6743,-1.2449 1.6598,-1.8932 1.0114,-0.6484 2.4896,-0.6484 2.7231,0 3.7864,2.6194 h 0.052 q 0.8559,-1.4005 1.9451,-1.9969 1.1151,-0.6225 2.4378,-0.6225 2.3081,0 3.4751,1.4005 1.1671,1.3745 1.1671,3.6826 v 9.1028 h -4.0457 v -8.4285 q 0,-1.1411 -0.5447,-1.7635 -0.5186,-0.6484 -1.5041,-0.6484 -1.0892,0 -1.7376,0.8299 -0.6224,0.8299 -0.6224,2.1525 v 7.858 h -4.0716 v -8.4285 q 0,-1.1411 -0.5187,-1.7635 -0.4928,-0.6484 -1.5042,-0.6484 -1.0892,0 -1.7376,0.8299 -0.6483,0.8299 -0.6483,2.1525 v 7.858 h -4.0716 z"
                   style="font-style:normal;font-variant:normal;font-weight:normal;font-stretch:normal;font-size:medium;line-height:0.89999998;font-family:'Neue Haas Grotesk Text Pro';-inkscape-font-specification:'Neue Haas Grotesk Text Pro';letter-spacing:0px;word-spacing:0px;fill:#ffffff;fill-opacity:1;stroke:none;stroke-width:0.64834857"
                   id="path54"
                   inkscape:connector-curvature="0" />
                <path
                   d="m -3463.2495,3139.2231 h 4.1235 v 3.5529 h -4.1235 z m 0.026,5.4979 h 4.0716 v 13.7969 h -4.0716 z"
                   style="font-style:normal;font-variant:normal;font-weight:normal;font-stretch:normal;font-size:medium;line-height:0.89999998;font-family:'Neue Haas Grotesk Text Pro';-inkscape-font-specification:'Neue Haas Grotesk Text Pro';letter-spacing:0px;word-spacing:0px;fill:#ffffff;fill-opacity:1;stroke:none;stroke-width:0.64834857"
                   id="path56"
                   inkscape:connector-curvature="0" />
                <path
                   d="m -3449.823,3158.9588 q -1.6598,0 -3.0084,-0.5446 -1.3226,-0.5706 -2.2822,-1.5561 -0.9336,-0.9855 -1.4523,-2.3081 -0.5187,-1.3486 -0.5187,-2.9046 0,-1.556 0.4928,-2.8787 0.5187,-1.3485 1.4523,-2.334 0.9336,-0.9855 2.2562,-1.5301 1.3227,-0.5706 2.9565,-0.5706 1.3745,0 2.4897,0.389 1.1151,0.3631 1.9191,1.0374 0.8299,0.6743 1.3486,1.6338 0.5186,0.9337 0.7002,2.0488 h -3.942 q -0.2075,-0.9595 -0.8299,-1.5041 -0.6224,-0.5706 -1.6338,-0.5706 -1.5561,0 -2.3341,1.167 -0.7521,1.1671 -0.7521,3.1121 0,1.8932 0.7521,3.0602 0.778,1.167 2.3341,1.167 1.1411,0 1.7894,-0.6483 0.6743,-0.6484 0.804,-1.8413 h 3.916 q -0.052,1.167 -0.5446,2.2044 -0.4668,1.0114 -1.2967,1.7635 -0.8299,0.7521 -2.0229,1.167 -1.167,0.4409 -2.5933,0.4409 z"
                   style="font-style:normal;font-variant:normal;font-weight:normal;font-stretch:normal;font-size:medium;line-height:0.89999998;font-family:'Neue Haas Grotesk Text Pro';-inkscape-font-specification:'Neue Haas Grotesk Text Pro';letter-spacing:0px;word-spacing:0px;fill:#ffffff;fill-opacity:1;stroke:none;stroke-width:0.64834857"
                   id="path58"
                   inkscape:connector-curvature="0" />
                <path
                   d="m -3557.5056,3182.8241 q -2.1007,0 -3.8642,-0.7521 -1.7376,-0.7521 -2.9824,-2.0747 -1.2448,-1.3486 -1.945,-3.1899 -0.6743,-1.8413 -0.6743,-3.9938 0,-2.1525 0.6743,-3.9938 0.6742,-1.8414 1.8931,-3.1899 1.2449,-1.3486 2.9824,-2.1007 1.7635,-0.778 3.9161,-0.778 1.6079,0 2.9564,0.389 1.3486,0.3631 2.3341,1.1152 1.3226,0.9595 2.0488,2.334 0.7521,1.3745 0.9336,3.0084 h -4.4088 q -0.2074,-1.3745 -1.2448,-2.2563 -1.0114,-0.9077 -2.6453,-0.9077 -1.2448,0 -2.1784,0.4928 -0.9077,0.4668 -1.5301,1.3226 -0.5965,0.8558 -0.9077,2.0229 -0.3112,1.167 -0.3112,2.5415 0,1.3745 0.3371,2.5415 0.3631,1.167 0.9855,2.0229 0.6484,0.8298 1.5561,1.3226 0.9336,0.4668 2.0747,0.4668 1.7894,0 2.8268,-1.0114 1.0373,-1.0114 1.1929,-2.5156 h 4.4347 q -0.1037,1.4523 -0.7261,2.749 -0.6224,1.2707 -1.6079,2.2562 -1.0892,1.0893 -2.5934,1.6339 -1.5042,0.5446 -3.527,0.5446 z"
                   style="font-style:normal;font-variant:normal;font-weight:normal;font-stretch:normal;font-size:medium;line-height:0.89999998;font-family:'Neue Haas Grotesk Text Pro';-inkscape-font-specification:'Neue Haas Grotesk Text Pro';letter-spacing:0px;word-spacing:0px;fill:#ffffff;fill-opacity:1;stroke:none;stroke-width:0.64834857"
                   id="path60"
                   inkscape:connector-curvature="0" />
                <path
                   d="m -3540.1348,3182.8241 q -1.6597,0 -3.0083,-0.5446 -1.3486,-0.5706 -2.3081,-1.5561 -0.9596,-0.9855 -1.4782,-2.3081 -0.5187,-1.3485 -0.5187,-2.9046 0,-1.556 0.5187,-2.8787 0.5186,-1.3485 1.4782,-2.334 0.9595,-0.9855 2.3081,-1.5301 1.3486,-0.5706 3.0083,-0.5706 1.6339,0 2.9824,0.5706 1.3486,0.5446 2.2822,1.5301 0.9596,0.9855 1.4783,2.334 0.5186,1.3227 0.5186,2.8787 0,1.5561 -0.5186,2.9046 -0.5187,1.3226 -1.4783,2.3081 -0.9336,0.9855 -2.2822,1.5561 -1.3485,0.5446 -2.9824,0.5446 z m -0.026,-2.9565 q 1.5301,0 2.3341,-1.1929 0.8299,-1.2189 0.8299,-3.164 0,-1.971 -0.8299,-3.1899 -0.804,-1.2189 -2.3341,-1.2189 -1.556,0 -2.36,1.2189 -0.8039,1.2189 -0.8039,3.1899 0,1.9451 0.8039,3.164 0.804,1.1929 2.36,1.1929 z"
                   style="font-style:normal;font-variant:normal;font-weight:normal;font-stretch:normal;font-size:medium;line-height:0.89999998;font-family:'Neue Haas Grotesk Text Pro';-inkscape-font-specification:'Neue Haas Grotesk Text Pro';letter-spacing:0px;word-spacing:0px;fill:#ffffff;fill-opacity:1;stroke:none;stroke-width:0.64834857"
                   id="path62"
                   inkscape:connector-curvature="0" />
                <path
                   d="m -3530.8443,3168.5864 h 3.916 v 2.1525 h 0.078 q 0.6743,-1.2449 1.6598,-1.8932 1.0114,-0.6484 2.4896,-0.6484 2.7231,0 3.7864,2.6194 h 0.052 q 0.8558,-1.4005 1.945,-1.9969 1.1152,-0.6225 2.4378,-0.6225 2.3081,0 3.4751,1.4005 1.1671,1.3745 1.1671,3.6826 v 9.1028 h -4.0457 v -8.4285 q 0,-1.1411 -0.5446,-1.7635 -0.5187,-0.6484 -1.5042,-0.6484 -1.0892,0 -1.7376,0.8299 -0.6224,0.8299 -0.6224,2.1525 v 7.858 h -4.0716 v -8.4285 q 0,-1.1411 -0.5187,-1.7635 -0.4928,-0.6484 -1.5042,-0.6484 -1.0892,0 -1.7375,0.8299 -0.6484,0.8299 -0.6484,2.1525 v 7.858 h -4.0716 z"
                   style="font-style:normal;font-variant:normal;font-weight:normal;font-stretch:normal;font-size:medium;line-height:0.89999998;font-family:'Neue Haas Grotesk Text Pro';-inkscape-font-specification:'Neue Haas Grotesk Text Pro';letter-spacing:0px;word-spacing:0px;fill:#ffffff;fill-opacity:1;stroke:none;stroke-width:0.64834857"
                   id="path64"
                   inkscape:connector-curvature="0" />
                <path
                   d="m -3507.2404,3168.5864 h 3.916 v 1.9709 h 0.078 q 1.4005,-2.36 4.2013,-2.36 1.3745,0 2.4638,0.5447 1.1151,0.5446 1.8672,1.5301 0.778,0.9595 1.193,2.3081 0.4149,1.3226 0.4149,2.9046 0,1.6857 -0.4409,3.0602 -0.4149,1.3485 -1.2189,2.3081 -0.778,0.9336 -1.9191,1.4523 -1.1151,0.5187 -2.4896,0.5187 -1.3745,0 -2.4378,-0.5706 -1.0374,-0.5705 -1.6339,-1.5819 h -0.052 q 0.052,0.389 0.078,1.1411 0.052,0.752 0.052,1.8672 v 3.2936 h -4.0716 z m 7.1059,11.0737 q 1.4004,0 2.1525,-1.0892 0.7521,-1.0892 0.7521,-2.9565 0,-1.8672 -0.7261,-3.0083 -0.7262,-1.167 -2.2304,-1.167 -0.778,0 -1.3745,0.3371 -0.5705,0.3112 -0.9595,0.8818 -0.389,0.5705 -0.5965,1.3226 -0.1815,0.7521 -0.1815,1.6338 0,1.7895 0.8039,2.9306 0.804,1.1151 2.36,1.1151 z"
                   style="font-style:normal;font-variant:normal;font-weight:normal;font-stretch:normal;font-size:medium;line-height:0.89999998;font-family:'Neue Haas Grotesk Text Pro';-inkscape-font-specification:'Neue Haas Grotesk Text Pro';letter-spacing:0px;word-spacing:0px;fill:#ffffff;fill-opacity:1;stroke:none;stroke-width:0.64834857"
                   id="path66"
                   inkscape:connector-curvature="0" />
                <path
                   d="m -3491.0305,3163.0884 h 4.0976 v 19.2948 h -4.0976 z"
                   style="font-style:normal;font-variant:normal;font-weight:normal;font-stretch:normal;font-size:medium;line-height:0.89999998;font-family:'Neue Haas Grotesk Text Pro';-inkscape-font-specification:'Neue Haas Grotesk Text Pro';letter-spacing:0px;word-spacing:0px;fill:#ffffff;fill-opacity:1;stroke:none;stroke-width:0.64834857"
                   id="path68"
                   inkscape:connector-curvature="0" />
                <path
                   d="m -3477.5545,3182.7982 q -1.6857,0 -3.0343,-0.5447 -1.3486,-0.5705 -2.3081,-1.556 -0.9337,-0.9855 -1.4523,-2.3081 -0.4928,-1.3226 -0.4928,-2.8787 0,-1.556 0.5187,-2.8787 0.5187,-1.3485 1.4523,-2.334 0.9336,-0.9855 2.2303,-1.5301 1.2967,-0.5706 2.8787,-0.5706 1.4782,0 2.6453,0.4669 1.1929,0.4668 2.1006,1.2967 1.167,1.141 1.7116,2.8267 0.5447,1.6858 0.5187,3.7345 h -10.0623 q 0.2074,1.5561 1.0373,2.4378 0.8299,0.8818 2.3081,0.8818 0.9596,0 1.5561,-0.3372 0.6224,-0.363 0.9595,-1.0114 h 3.942 q -0.2594,0.9077 -0.8299,1.7117 -0.5446,0.778 -1.3745,1.3745 -0.804,0.5705 -1.8932,0.8817 -1.0892,0.3372 -2.4118,0.3372 z m -0.2075,-11.7222 q -1.4004,0 -2.1266,0.8299 -0.7261,0.8299 -0.9336,2.2562 h 5.887 q -0.1037,-1.4523 -0.8558,-2.2562 -0.7521,-0.8299 -1.971,-0.8299 z"
                   style="font-style:normal;font-variant:normal;font-weight:normal;font-stretch:normal;font-size:medium;line-height:0.89999998;font-family:'Neue Haas Grotesk Text Pro';-inkscape-font-specification:'Neue Haas Grotesk Text Pro';letter-spacing:0px;word-spacing:0px;fill:#ffffff;fill-opacity:1;stroke:none;stroke-width:0.64834857"
                   id="path70"
                   inkscape:connector-curvature="0" />
                <path
                   d="m -3465.7145,3175.1476 -4.3828,-6.5612 h 4.6422 l 0.8039,1.2966 q 0.2594,0.4409 0.5187,0.9596 0.2593,0.4927 0.4668,0.9336 0.2593,0.5187 0.4668,1.0374 h 0.052 q 0.2075,-0.5187 0.4668,-1.0374 0.2075,-0.4409 0.4409,-0.9336 0.2593,-0.5187 0.4927,-0.9596 l 0.7521,-1.2966 h 4.305 l -4.2272,6.4834 4.8497,7.3134 h -4.72 l -1.0633,-1.7635 q -0.2594,-0.4409 -0.5187,-0.9596 -0.2593,-0.5446 -0.4668,-1.0114 -0.2593,-0.5446 -0.5187,-1.0892 h -0.052 l -0.5446,1.0892 q -0.2334,0.4668 -0.5186,1.0114 -0.2594,0.5187 -0.5447,0.9596 l -1.1151,1.7635 h -4.4347 z"
                   style="font-style:normal;font-variant:normal;font-weight:normal;font-stretch:normal;font-size:medium;line-height:0.89999998;font-family:'Neue Haas Grotesk Text Pro';-inkscape-font-specification:'Neue Haas Grotesk Text Pro';letter-spacing:0px;word-spacing:0px;fill:#ffffff;fill-opacity:1;stroke:none;stroke-width:0.64834857"
                   id="path72"
                   inkscape:connector-curvature="0" />
                <path
                   d="m -3454.2841,3163.0884 h 4.1235 v 3.5529 h -4.1235 z m 0.026,5.498 h 4.0717 v 13.7968 h -4.0717 z"
                   style="font-style:normal;font-variant:normal;font-weight:normal;font-stretch:normal;font-size:medium;line-height:0.89999998;font-family:'Neue Haas Grotesk Text Pro';-inkscape-font-specification:'Neue Haas Grotesk Text Pro';letter-spacing:0px;word-spacing:0px;fill:#ffffff;fill-opacity:1;stroke:none;stroke-width:0.64834857"
                   id="path74"
                   inkscape:connector-curvature="0" />
                <path
                   d="m -3448.2747,3168.5864 h 2.0747 v -4.4088 h 3.9938 v 4.4088 h 2.6972 v 2.5933 h -2.6972 v 6.8466 q 0,0.778 0.389,1.0633 0.415,0.2593 1.1411,0.2593 0.2075,0 0.4668,0 0.2594,-0.026 0.4669,-0.052 h 0.2074 v 3.0342 q -0.3371,0.052 -0.9336,0.1297 -0.5965,0.078 -1.4264,0.078 -0.9595,0 -1.7635,-0.1556 -0.778,-0.1815 -1.3485,-0.5965 -0.5706,-0.4408 -0.8818,-1.1151 -0.3112,-0.7002 -0.3112,-1.7635 v -7.7284 h -2.0747 z"
                   style="font-style:normal;font-variant:normal;font-weight:normal;font-stretch:normal;font-size:medium;line-height:0.89999998;font-family:'Neue Haas Grotesk Text Pro';-inkscape-font-specification:'Neue Haas Grotesk Text Pro';letter-spacing:0px;word-spacing:0px;fill:#ffffff;fill-opacity:1;stroke:none;stroke-width:0.64834857"
                   id="path76"
                   inkscape:connector-curvature="0" />
                <path
                   d="m -3433.9774,3186.9994 q -0.052,0 -0.4668,0 -0.415,0 -0.9077,-0.026 -0.4927,0 -0.9077,-0.026 -0.4149,0 -0.4409,0 v -3.1899 h 0.2075 q 0.026,0 0.2075,0 0.2074,0.026 0.4409,0.026 0.2334,0 0.4149,0 0.2075,0 0.2593,0 1.8413,0 1.971,-1.4004 0,-0.3631 -0.1815,-1.0892 -0.1816,-0.7521 -0.5446,-1.6857 l -4.2791,-11.0219 h 4.2791 l 1.7635,5.2905 q 0.2334,0.7002 0.4408,1.556 0.2075,0.8299 0.3631,1.556 0.1816,0.8559 0.3372,1.6858 h 0.052 q 0.1816,-0.8559 0.389,-1.7117 0.1816,-0.7261 0.3891,-1.556 0.2074,-0.8299 0.4408,-1.5301 l 1.6857,-5.2905 h 4.0457 l -4.9274,14.1339 q -0.415,1.193 -0.8818,1.997 -0.4668,0.8298 -1.0633,1.3226 -0.5964,0.5187 -1.3485,0.7261 -0.7521,0.2334 -1.7376,0.2334 z"
                   style="font-style:normal;font-variant:normal;font-weight:normal;font-stretch:normal;font-size:medium;line-height:0.89999998;font-family:'Neue Haas Grotesk Text Pro';-inkscape-font-specification:'Neue Haas Grotesk Text Pro';letter-spacing:0px;word-spacing:0px;fill:#ffffff;fill-opacity:1;stroke:none;stroke-width:0.64834857"
                   id="path78"
                   inkscape:connector-curvature="0" />
              </g>
              <g
                 id="g308"
                 transform="matrix(0.68600084,0,0,0.68600084,-1111.639,986.93908)"
                 style="stroke:#ffffff">
                <path
                   id="rect179"
                   style="opacity:1;fill:#ffffff;fill-opacity:1;stroke:#ffffff;stroke-width:0.45883361;stroke-linecap:square;stroke-linejoin:miter;stroke-miterlimit:4;stroke-dasharray:none"
                   d="m -3549.2982,3159.5067 h -22.2154 v -22.2153 h 22.2154 z m 0,-22.2152 h -22.2154 v -22.2153 h 22.2154 z m 0,-22.2153 h -22.2154 v -22.2154 h 22.2154 z m 0,-22.2154 h -22.2154 v -22.2153 h 22.2154 z m 0,-22.2153 h -22.2154 v -22.2154 h 22.2154 z m 0,-22.2152 h -22.2154 v -22.2153 h 22.2154 z m 0,-22.2153 h -22.2154 v -22.2154 h 22.2154 z m 22.2153,133.2917 h -22.2155 v -22.2153 h 22.2155 z m 0,-66.6459 h -22.2155 v -22.2153 h 22.2155 z m 0,-66.6458 h -22.2155 v -22.2154 h 22.2155 z m 22.2152,133.2917 h -22.2154 v -22.2153 h 22.2154 z m 0,-66.6459 h -22.2154 v -22.2153 h 22.2154 z m 0,-66.6458 h -22.2154 v -22.2154 h 22.2154 z m 22.2153,133.2917 h -22.2153 v -22.2153 h 22.2153 z m 0,-66.6459 h -22.2153 v -22.2153 h 22.2153 z m 0,-66.6458 h -22.2153 v -22.2154 h 22.2153 z m 22.2154,133.2917 h -22.2154 v -22.2153 h 22.2154 z m 0,-22.2152 h -22.2154 v -22.2153 h 22.2154 z m 0,-22.2153 h -22.2154 v -22.2154 h 22.2154 z m 0,-22.2154 h -22.2154 v -22.2153 h 22.2154 z m 0,-66.6458 h -22.2154 v -22.2154 h 22.2154 z m 22.2152,133.2917 h -22.2154 v -22.2153 h 22.2154 z m 0,-66.6459 h -22.2154 v -22.2153 h 22.2154 z m 0,-66.6458 h -22.2154 v -22.2154 h 22.2154 z m 22.2153,133.2917 h -22.2153 v -22.2153 h 22.2153 z m 0,-66.6459 h -22.2153 v -22.2153 h 22.2153 z m 0,-66.6458 h -22.2153 v -22.2154 h 22.2153 z"
                   inkscape:connector-curvature="0" />
              </g>
            </g>
          </g>
        </g>
      </g>
    </g>
  </g>
</svg>
