<?xml version="1.0" encoding="UTF-8" standalone="no"?>
<!-- Created with Inkscape (http://www.inkscape.org/) -->

<svg
   xmlns:dc="http://purl.org/dc/elements/1.1/"
   xmlns:cc="http://creativecommons.org/ns#"
   xmlns:rdf="http://www.w3.org/1999/02/22-rdf-syntax-ns#"
   xmlns:svg="http://www.w3.org/2000/svg"
   xmlns="http://www.w3.org/2000/svg"
   xmlns:xlink="http://www.w3.org/1999/xlink"
   xmlns:sodipodi="http://sodipodi.sourceforge.net/DTD/sodipodi-0.dtd"
   xmlns:inkscape="http://www.inkscape.org/namespaces/inkscape"
   version="1.0"
   width="166.03305"
   height="192.11954"
   id="svg2811"
   inkscape:version="0.92.3 (2405546, 2018-03-11)"
   sodipodi:docname="hexicon.svg"
   inkscape:export-filename="/home/pacha/GitHub/gravity/docs/apple.png"
   inkscape:export-xdpi="90"
   inkscape:export-ydpi="90">
  <metadata
     id="metadata17">
    <rdf:RDF>
      <cc:Work
         rdf:about="">
        <dc:format>image/svg+xml</dc:format>
        <dc:type
           rdf:resource="http://purl.org/dc/dcmitype/StillImage" />
        <dc:title />
      </cc:Work>
    </rdf:RDF>
  </metadata>
  <sodipodi:namedview
     pagecolor="#ffffff"
     bordercolor="#666666"
     borderopacity="1"
     objecttolerance="10"
     gridtolerance="10"
     guidetolerance="10"
     inkscape:pageopacity="0"
     inkscape:pageshadow="2"
     inkscape:window-width="1600"
     inkscape:window-height="832"
     id="namedview15"
     showgrid="false"
     fit-margin-top="0"
     fit-margin-left="0"
     fit-margin-right="0"
     fit-margin-bottom="0"
     inkscape:zoom="2.5600001"
     inkscape:cx="16.870196"
     inkscape:cy="92.835556"
     inkscape:window-x="0"
     inkscape:window-y="32"
     inkscape:window-maximized="1"
     inkscape:current-layer="g218"
     showguides="true"
     inkscape:guide-bbox="true"
     inkscape:measure-start="0,0"
     inkscape:measure-end="0,0">
    <sodipodi:guide
       position="150.55636,-303.66453"
       orientation="0,1"
       id="guide903"
       inkscape:locked="false" />
  </sodipodi:namedview>
  <defs
     id="defs2813">
    <inkscape:perspective
       sodipodi:type="inkscape:persp3d"
       inkscape:vp_x="0 : 882.13641 : 1"
       inkscape:vp_y="0 : 1000 : 0"
       inkscape:vp_z="1500 : 882.13641 : 1"
       inkscape:persp3d-origin="750 : 588.09094 : 1"
       id="perspective4362" />
    <clipPath
       id="clp12">
      <path
         d="m 45.315,71.927 h 12.92 v 15.867 h -12.92 z"
         id="path184"
         inkscape:connector-curvature="0" />
    </clipPath>
    <clipPath
       id="clp21">
      <path
         d="m 123.91,72.178 h 26.23 v 15.294 h -26.23 z"
         id="path592"
         inkscape:connector-curvature="0" />
    </clipPath>
    <clipPath
       id="clp9">
      <path
         d="m 413.96,49.857 h 31.76 v 8.719 h -31.76 z"
         id="path100"
         inkscape:connector-curvature="0" />
    </clipPath>
    <inkscape:perspective
       id="perspective4362-3"
       inkscape:persp3d-origin="750 : 588.09094 : 1"
       inkscape:vp_z="1500 : 882.13641 : 1"
       inkscape:vp_y="0 : 1000 : 0"
       inkscape:vp_x="0 : 882.13641 : 1"
       sodipodi:type="inkscape:persp3d" />
    <clipPath
       id="clp12-5">
      <path
         inkscape:connector-curvature="0"
         id="path184-6"
         d="m 45.315,71.927 h 12.92 v 15.867 h -12.92 z" />
    </clipPath>
    <clipPath
       id="clp21-2">
      <path
         inkscape:connector-curvature="0"
         id="path592-9"
         d="m 123.91,72.178 h 26.23 v 15.294 h -26.23 z" />
    </clipPath>
    <clipPath
       id="clp9-1">
      <path
         inkscape:connector-curvature="0"
         id="path100-2"
         d="m 413.96,49.857 h 31.76 v 8.719 h -31.76 z" />
    </clipPath>
    <linearGradient
       xlink:href="#0-7"
       gradientUnits="userSpaceOnUse"
       y2="545.15002"
       x2="0"
       y1="518.08002"
       id="0">
      <stop
         id="stop7"
         stop-color="#faf7f7" />
      <stop
         id="stop9"
         stop-color="#d4d4d4"
         offset="1" />
    </linearGradient>
    <linearGradient
       gradientUnits="userSpaceOnUse"
       y2="518.08002"
       x2="402.47"
       y1="545.15002"
       x1="403.44"
       id="1">
      <stop
         id="stop12"
         stop-color="#d3d3d3" />
      <stop
         id="stop14"
         stop-color="#fcf9f9"
         offset="1" />
    </linearGradient>
    <linearGradient
       y2="155.59"
       x2="20.030001"
       y1="261.26001"
       x1="18.6"
       gradientUnits="userSpaceOnUse"
       id="0-7"
       gradientTransform="matrix(0.43355,0,0,0.43481,-57.018323,-61.893693)">
      <stop
         id="stop11"
         stop-color="#2a2c2f" />
      <stop
         id="stop13"
         stop-color="#424649"
         offset="1" />
    </linearGradient>
    <clipPath
       id="id3">
      <path
         id="path16946"
         d="M 11600200,27707200 C 11600200,27707200 11534980,27531590 10932860,27576730 C 10360840,27621900 10034720,27616890 9934350,27576730 C 9828980,27536600 9738670,27511520 9593160,27481420 C 9472720,27461330 9226860,27436240 9292110,27441250 C 9166690,27426220 9051260,27441250 9051260,27441250 C 9051260,27441250 9026190,27461330 9091410,27355950 C 9146610,27270650 9262010,27230540 9412520,27054890 C 9461250,26998040 10217950,27042100 10275540,27054890 C 10345810,27069960 10426090,27064950 10456200,27054890 C 10486290,27044870 10827480,27039860 10978030,27054890 C 11163230,27095180 11429670,27112850 11470030,27112410 C 11575930,27111250 11615270,27215470 11630290,27386060 C 11645360,27561690 11655400,27451310 11600200,27707200 z " />
    </clipPath>
    <clipPath
       id="id2">
      <path
         id="path16943"
         d="M 11018100,29368000 C 11018100,29368000 10646810,29458310 10591610,29327830 C 10561510,29262630 10541460,28760860 10315640,28600300 C 10084810,28444730 9983040,28310280 9491220,27934190 C 9340580,27819000 9196690,27737270 9141540,27641950 C 9101370,27571690 9096360,27476370 9051200,27441220 C 9051200,27441220 9332220,27411120 9783780,27521500 C 9783780,27521500 9718530,27742280 9864070,27817550 C 9944350,27857680 10130020,28133680 10416010,28269130 C 10686930,28394580 10852510,28846160 10937810,29092030 C 11033170,29362990 11018100,29368000 11018100,29368000 z " />
    </clipPath>
    <clipPath
       id="id1">
      <path
         id="path16940"
         d="M 9673400,29448300 C 9673400,29448300 10034670,29378040 10099890,29408140 C 10165110,29443290 10235360,28996690 10466170,28836160 C 10732120,28655510 11168650,28314320 11600150,27707190 C 11600150,27707190 11504830,27531580 11083350,27586780 C 11083350,27586780 11073290,27792490 11028170,27872770 C 10977980,27953060 10752200,28284220 10466170,28394600 C 10180180,28504960 9959390,28821090 9864080,29092050 C 9768760,29363010 9673400,29448300 9673400,29448300 z " />
    </clipPath>
    <linearGradient
       id="linearGradient13037">
      <stop
         id="stop13039"
         offset="0"
         style="stop-color:#999;stop-opacity:1" />
      <stop
         id="stop13041"
         offset="1"
         style="stop-color:#525252;stop-opacity:1" />
    </linearGradient>
    <linearGradient
       id="linearGradient12124">
      <stop
         id="stop12126"
         offset="0"
         style="stop-color:#4a4a4a;stop-opacity:1" />
      <stop
         id="stop12128"
         offset="1"
         style="stop-color:#adadad;stop-opacity:1" />
    </linearGradient>
    <linearGradient
       id="linearGradient11217">
      <stop
         id="stop11219"
         offset="0"
         style="stop-color:#999;stop-opacity:1" />
      <stop
         id="stop11221"
         offset="1"
         style="stop-color:white;stop-opacity:1" />
    </linearGradient>
    <linearGradient
       xlink:href="#linearGradient1012"
       id="linearGradient871" />
    <linearGradient
       gradientUnits="userSpaceOnUse"
       xlink:href="#linearGradient865"
       id="linearGradient1011"
       y2="24.17461"
       x2="53.211624"
       y1="180.92995"
       x1="77.291656" />
    <linearGradient
       gradientUnits="userSpaceOnUse"
       xlink:href="#linearGradient865"
       id="linearGradient1010"
       y2="40.053986"
       x2="38.977112"
       y1="-53.39077"
       x1="43.39798" />
    <linearGradient
       gradientTransform="scale(1.069323,0.935172)"
       gradientUnits="userSpaceOnUse"
       xlink:href="#linearGradient865"
       id="linearGradient870"
       y2="112.48578"
       x2="88.360741"
       y1="199.48994"
       x1="178.42355" />
    <linearGradient
       gradientTransform="scale(1.108489,0.902129)"
       gradientUnits="userSpaceOnUse"
       xlink:href="#linearGradient865"
       id="linearGradient864"
       y2="46.947098"
       x2="82.344437"
       y1="25.611177"
       x1="105.80702" />
    <radialGradient
       gradientUnits="userSpaceOnUse"
       xlink:href="#linearGradient1400"
       id="radialGradient858"
       fy="77.944687"
       fx="79.895966"
       r="68.379425"
       cy="77.944687"
       cx="79.895966" />
    <radialGradient
       gradientUnits="userSpaceOnUse"
       xlink:href="#linearGradient853"
       id="radialGradient852"
       fy="325.7662"
       fx="240.38737"
       r="200.73203"
       cy="477.83307"
       cx="227.00549" />
    <linearGradient
       id="linearGradient849">
      <stop
         id="stop850"
         offset="0"
         style="stop-color:white;stop-opacity:1" />
      <stop
         id="stop861"
         offset="0.3804014"
         style="stop-color:#1d1d1d;stop-opacity:0.56078434" />
      <stop
         id="stop862"
         offset="0.510472"
         style="stop-color:black;stop-opacity:0.30208334" />
      <stop
         id="stop860"
         offset="0.64054263"
         style="stop-color:black;stop-opacity:0.21568628" />
      <stop
         id="stop851"
         offset="1"
         style="stop-color:black;stop-opacity:0" />
    </linearGradient>
    <linearGradient
       id="linearGradient853">
      <stop
         id="stop1185"
         offset="0"
         style="stop-color:#477daf;stop-opacity:1" />
      <stop
         id="stop855"
         offset="1"
         style="stop-color:#020407;stop-opacity:1" />
    </linearGradient>
    <linearGradient
       id="linearGradient865">
      <stop
         id="stop866"
         offset="0"
         style="stop-color:white;stop-opacity:1" />
      <stop
         id="stop868"
         offset="1"
         style="stop-color:white;stop-opacity:0" />
    </linearGradient>
    <linearGradient
       id="linearGradient1012">
      <stop
         id="stop1013"
         offset="0"
         style="stop-color:black;stop-opacity:0.30578512" />
      <stop
         id="stop1014"
         offset="1"
         style="stop-color:black;stop-opacity:0" />
    </linearGradient>
    <linearGradient
       id="linearGradient1400">
      <stop
         id="stop1401"
         offset="0"
         style="stop-color:black;stop-opacity:0.67843139" />
      <stop
         id="stop1403"
         offset="0.56999999"
         style="stop-color:black;stop-opacity:0.32941177" />
      <stop
         id="stop1402"
         offset="1"
         style="stop-color:black;stop-opacity:0" />
    </linearGradient>
    <linearGradient
       gradientTransform="matrix(0.512474,0,0,0.512474,372.9769,173.2066)"
       gradientUnits="userSpaceOnUse"
       xlink:href="#linearGradient12124"
       id="linearGradient25235"
       y2="145.21245"
       x2="271.66251"
       y1="148.31908"
       x1="250.91864" />
    <linearGradient
       gradientTransform="matrix(0.512474,0,0,0.512474,372.9769,173.2066)"
       gradientUnits="userSpaceOnUse"
       xlink:href="#linearGradient11217"
       id="linearGradient25237"
       y2="125.60667"
       x2="177.69412"
       y1="167.02818"
       x1="250.95844" />
    <radialGradient
       gradientUnits="userSpaceOnUse"
       xlink:href="#linearGradient853"
       id="radialGradient25239"
       fy="325.7662"
       fx="240.38737"
       r="200.73203"
       cy="477.83307"
       cx="227.00549" />
    <linearGradient
       gradientTransform="matrix(0.183763,0,0,0.160709,234.2744,84.58468)"
       gradientUnits="userSpaceOnUse"
       xlink:href="#linearGradient865"
       id="linearGradient25241"
       y2="112.48578"
       x2="88.360741"
       y1="199.48994"
       x1="178.42355" />
    <linearGradient
       gradientTransform="matrix(-0.190494,0,0,0.155031,262.187,84.58468)"
       gradientUnits="userSpaceOnUse"
       xlink:href="#linearGradient865"
       id="linearGradient25243"
       y2="46.947098"
       x2="82.344437"
       y1="25.611177"
       x1="105.80702" />
    <linearGradient
       gradientTransform="matrix(0.512474,0,0,0.512474,372.569,173.2066)"
       gradientUnits="userSpaceOnUse"
       xlink:href="#linearGradient11217"
       id="linearGradient25247"
       y2="206.15578"
       x2="250.27042"
       y1="217.04466"
       x1="250.27271" />
    <linearGradient
       gradientTransform="matrix(0.512474,0,0,0.512474,372.5444,173.2066)"
       gradientUnits="userSpaceOnUse"
       xlink:href="#linearGradient12124"
       id="linearGradient25249"
       y2="216.97914"
       x2="249.15353"
       y1="232.72697"
       x1="249.06598" />
    <linearGradient
       gradientTransform="matrix(0.512474,0,0,0.512474,372.5691,182.9379)"
       gradientUnits="userSpaceOnUse"
       xlink:href="#linearGradient13037"
       id="linearGradient25251"
       y2="206.15578"
       x2="250.27042"
       y1="217.04466"
       x1="250.27271" />
  </defs>
  <g
     transform="translate(1996.6894,-3007.7561)"
     id="layer1">
    <g
       transform="translate(19.48863,19.49672)"
       id="g25472">
      <g
         id="g4353"
         transform="matrix(0.67573771,0,0,0.67573771,374.45067,977.3331)">
        <g
           transform="translate(80.542606)"
           id="g4347">
          <path
             sodipodi:type="star"
             style="fill:#ffffff;fill-opacity:1;stroke:#6e5b5f;stroke-width:73.99320221;stroke-miterlimit:4;stroke-dasharray:none;stroke-opacity:1"
             id="path4524"
             sodipodi:sides="6"
             sodipodi:cx="-5551.2134"
             sodipodi:cy="-204.52565"
             sodipodi:r1="1701.6108"
             sodipodi:r2="1473.6381"
             sodipodi:arg1="1.0471976"
             sodipodi:arg2="1.5707963"
             inkscape:flatsided="true"
             inkscape:rounded="0"
             inkscape:randomized="0"
             d="m -4700.408,1269.1126 -1701.6109,-10e-5 -850.8053,-1473.63823 850.8055,-1473.63817 1701.6108,10e-5 850.8054,1473.63823 z"
             inkscape:transform-center-x="1.5731476e-05"
             inkscape:transform-center-y="7.9344316e-05"
             transform="matrix(0,0.08149567,-0.08132553,0,-3512.1283,3570.4529)" />
          <text
             xml:space="preserve"
             style="font-style:normal;font-weight:normal;font-size:59.19456482px;line-height:1.25;font-family:sans-serif;letter-spacing:0px;word-spacing:0px;fill:#000000;fill-opacity:1;stroke:none;stroke-width:1.47986412"
             x="-3557.9272"
             y="3134.1738"
             id="text65"><tspan
               sodipodi:role="line"
               id="tspan63"
               x="-3557.9272"
               y="3186.5471"
               style="stroke-width:1.47986412" /></text>
          <g
             id="g4814"
             transform="translate(2.8318604,-16.159232)">
            <g
               id="g327"
               transform="translate(-7.7664075,4.9874077)">
              <g
                 id="g418"
                 transform="translate(0,-1.365332e-5)">
                <g
                   id="g218"
                   transform="translate(-1.4601317e-4,5.0962765)">
                  <g
                     id="g310"
                     transform="translate(1.585062e-4,-8.0929526)">
                    <g
                       id="g148"
                       transform="translate(-7.1009601,5.780719)">
                      <g
                         transform="matrix(1.192146,0,0,1.192146,681.04846,-617.4726)"
                         id="g262">
                        <g
                           id="g240"
                           transform="translate(49.532963)">
                          <path
                             d="m -3580.6985,3189.7092 h 5.9645 c 0.035,-0.2774 0.052,-0.6762 0.052,-0.9883 0,-2.9649 -1.6818,-4.7335 -4.3173,-4.7335 -2.8956,0 -4.4907,2.202 -4.4907,4.9242 0,2.8609 1.6298,4.8895 4.7854,4.8895 1.5605,0 2.8089,-0.5202 3.6758,-1.2657 l -1.0923,-1.4911 c -0.7282,0.4681 -1.5258,0.7629 -2.3581,0.7629 -1.179,0 -2.0286,-0.5896 -2.2193,-2.098 z m 1.6992,-3.8839 c 1.1617,0 1.6298,0.8843 1.6472,2.2194 h -3.3811 c 0.1214,-1.5258 0.7629,-2.2194 1.7339,-2.2194 z"
                             style="font-style:normal;font-variant:normal;font-weight:bold;font-stretch:normal;font-size:medium;line-height:0;font-family:'Fira Mono';-inkscape-font-specification:'Fira Mono Bold';letter-spacing:0px;word-spacing:0px;fill:#6e5b5f;fill-opacity:1;stroke:none;stroke-width:0.65019894"
                             id="path165"
                             inkscape:connector-curvature="0" />
                          <path
                             d="m -3567.788,3191.6338 c -1.179,0 -2.0459,-0.6242 -2.0459,-2.6702 0,-2.0806 0.8149,-2.8609 2.0633,-2.8609 0.7455,0 1.4391,0.2601 2.0632,0.6936 l 1.1791,-1.6472 c -0.919,-0.7629 -1.9766,-1.1617 -3.3637,-1.1617 -2.9649,0 -4.8028,2.098 -4.8028,4.9762 0,2.8782 1.7685,4.8375 4.7508,4.8375 1.4217,0 2.6008,-0.5202 3.4157,-1.2137 l -1.2137,-1.7339 c -0.6589,0.4508 -1.3004,0.7803 -2.046,0.7803 z"
                             style="font-style:normal;font-variant:normal;font-weight:bold;font-stretch:normal;font-size:medium;line-height:0;font-family:'Fira Mono';-inkscape-font-specification:'Fira Mono Bold';letter-spacing:0px;word-spacing:0px;fill:#6e5b5f;fill-opacity:1;stroke:none;stroke-width:0.65019894"
                             id="path167"
                             inkscape:connector-curvature="0" />
                          <path
                             d="m -3558.2932,3183.9874 c -2.8262,0 -4.4734,1.9766 -4.4734,4.9069 0,3.1036 1.6472,4.9068 4.4734,4.9068 2.8262,0 4.4734,-1.8379 4.4734,-4.9242 0,-2.9475 -1.6298,-4.8895 -4.4734,-4.8895 z m 0,2.0287 c 1.127,0 1.6472,0.8669 1.6472,2.8608 0,2.0633 -0.5202,2.9129 -1.6472,2.9129 -1.127,0 -1.6472,-0.8496 -1.6472,-2.8955 0,-2.0113 0.5202,-2.8782 1.6472,-2.8782 z"
                             style="font-style:normal;font-variant:normal;font-weight:bold;font-stretch:normal;font-size:medium;line-height:0;font-family:'Fira Mono';-inkscape-font-specification:'Fira Mono Bold';letter-spacing:0px;word-spacing:0px;fill:#6e5b5f;fill-opacity:1;stroke:none;stroke-width:0.65019894"
                             id="path169"
                             inkscape:connector-curvature="0" />
                          <path
                             d="m -3551.8847,3193.5063 h 2.7395 v -6.4326 c 0.5202,-0.6589 1.023,-1.0576 1.6125,-1.0576 0.6762,0 0.8843,0.3814 0.8843,1.5258 v 5.9644 h 2.7395 v -6.762 c 0,-1.7512 -0.9536,-2.7569 -2.5314,-2.7569 -1.1791,0 -2.046,0.4508 -2.8609,1.3698 l -0.1907,-1.0577 h -2.3928 z"
                             style="font-style:normal;font-variant:normal;font-weight:bold;font-stretch:normal;font-size:medium;line-height:0;font-family:'Fira Mono';-inkscape-font-specification:'Fira Mono Bold';letter-spacing:0px;word-spacing:0px;fill:#6e5b5f;fill-opacity:1;stroke:none;stroke-width:0.65019894"
                             id="path171"
                             inkscape:connector-curvature="0" />
                          <path
                             d="m -3537.5004,3183.9874 c -2.8262,0 -4.4733,1.9766 -4.4733,4.9069 0,3.1036 1.6471,4.9068 4.4733,4.9068 2.8262,0 4.4734,-1.8379 4.4734,-4.9242 0,-2.9475 -1.6298,-4.8895 -4.4734,-4.8895 z m 0,2.0287 c 1.127,0 1.6472,0.8669 1.6472,2.8608 0,2.0633 -0.5202,2.9129 -1.6472,2.9129 -1.127,0 -1.6471,-0.8496 -1.6471,-2.8955 0,-2.0113 0.5201,-2.8782 1.6471,-2.8782 z"
                             style="font-style:normal;font-variant:normal;font-weight:bold;font-stretch:normal;font-size:medium;line-height:0;font-family:'Fira Mono';-inkscape-font-specification:'Fira Mono Bold';letter-spacing:0px;word-spacing:0px;fill:#6e5b5f;fill-opacity:1;stroke:none;stroke-width:0.65019894"
                             id="path173"
                             inkscape:connector-curvature="0" />
                          <path
                             d="m -3524.2778,3183.9874 c -0.8322,0 -1.4737,0.4508 -2.0286,1.0924 -0.208,-0.7456 -0.7282,-1.0924 -1.4217,-1.0924 -0.815,0 -1.3525,0.4162 -1.9246,1.1964 l -0.1908,-0.8843 h -1.9939 v 9.2068 h 2.3754 v -6.7794 c 0.3641,-0.4681 0.6762,-0.6068 0.9536,-0.6068 0.3641,0 0.4508,0.2427 0.4508,0.8843 v 6.5019 h 1.9419 v -6.7794 c 0.3642,-0.4681 0.6589,-0.6068 0.9537,-0.6068 0.3641,0 0.4508,0.2427 0.4508,0.8843 v 6.5019 h 2.3407 v -6.814 c 0,-1.8899 -0.6069,-2.7049 -1.9073,-2.7049 z"
                             style="font-style:normal;font-variant:normal;font-weight:bold;font-stretch:normal;font-size:medium;line-height:0;font-family:'Fira Mono';-inkscape-font-specification:'Fira Mono Bold';letter-spacing:0px;word-spacing:0px;fill:#6e5b5f;fill-opacity:1;stroke:none;stroke-width:0.65019894"
                             id="path175"
                             inkscape:connector-curvature="0" />
                          <path
                             d="m -3516.7249,3179.4794 c -0.9536,0 -1.6298,0.6762 -1.6298,1.5431 0,0.8843 0.6762,1.5432 1.6298,1.5432 0.9536,0 1.6125,-0.6589 1.6125,-1.5432 0,-0.8669 -0.6589,-1.5431 -1.6125,-1.5431 z m 1.6472,4.8201 h -5.2536 v 1.8726 h 2.5141 v 5.4617 h -2.6008 v 1.8725 h 7.6983 v -1.8725 h -2.358 z"
                             style="font-style:normal;font-variant:normal;font-weight:bold;font-stretch:normal;font-size:medium;line-height:0;font-family:'Fira Mono';-inkscape-font-specification:'Fira Mono Bold';letter-spacing:0px;word-spacing:0px;fill:#6e5b5f;fill-opacity:1;stroke:none;stroke-width:0.65019894"
                             id="path177"
                             inkscape:connector-curvature="0" />
                          <path
                             d="m -3505.4095,3191.6338 c -1.1791,0 -2.046,-0.6242 -2.046,-2.6702 0,-2.0806 0.8149,-2.8609 2.0633,-2.8609 0.7456,0 1.4391,0.2601 2.0633,0.6936 l 1.179,-1.6472 c -0.9189,-0.7629 -1.9766,-1.1617 -3.3637,-1.1617 -2.9649,0 -4.8028,2.098 -4.8028,4.9762 0,2.8782 1.7686,4.8375 4.7508,4.8375 1.4218,0 2.6008,-0.5202 3.4157,-1.2137 l -1.2137,-1.7339 c -0.6588,0.4508 -1.3004,0.7803 -2.0459,0.7803 z"
                             style="font-style:normal;font-variant:normal;font-weight:bold;font-stretch:normal;font-size:medium;line-height:0;font-family:'Fira Mono';-inkscape-font-specification:'Fira Mono Bold';letter-spacing:0px;word-spacing:0px;fill:#6e5b5f;fill-opacity:1;stroke:none;stroke-width:0.65019894"
                             id="path179"
                             inkscape:connector-curvature="0" />
                        </g>
                        <g
                           id="g230"
                           transform="translate(-44.511537,16.186014)">
                          <path
                             d="m -3495.0131,3191.6338 c -1.179,0 -2.046,-0.6242 -2.046,-2.6702 0,-2.0806 0.8149,-2.8609 2.0633,-2.8609 0.7456,0 1.4391,0.2601 2.0633,0.6936 l 1.179,-1.6472 c -0.9189,-0.7629 -1.9766,-1.1617 -3.3636,-1.1617 -2.965,0 -4.8029,2.098 -4.8029,4.9762 0,2.8782 1.7686,4.8375 4.7508,4.8375 1.4218,0 2.6008,-0.5202 3.4157,-1.2137 l -1.2137,-1.7339 c -0.6588,0.4508 -1.3004,0.7803 -2.0459,0.7803 z"
                             style="font-style:normal;font-variant:normal;font-weight:bold;font-stretch:normal;font-size:medium;line-height:0;font-family:'Fira Mono';-inkscape-font-specification:'Fira Mono Bold';letter-spacing:0px;word-spacing:0px;fill:#6e5b5f;fill-opacity:1;stroke:none;stroke-width:0.65019894"
                             id="path181"
                             inkscape:connector-curvature="0" />
                          <path
                             d="m -3485.5183,3183.9874 c -2.8262,0 -4.4734,1.9766 -4.4734,4.9069 0,3.1036 1.6472,4.9068 4.4734,4.9068 2.8262,0 4.4734,-1.8379 4.4734,-4.9242 0,-2.9475 -1.6299,-4.8895 -4.4734,-4.8895 z m 0,2.0287 c 1.127,0 1.6472,0.8669 1.6472,2.8608 0,2.0633 -0.5202,2.9129 -1.6472,2.9129 -1.127,0 -1.6472,-0.8496 -1.6472,-2.8955 0,-2.0113 0.5202,-2.8782 1.6472,-2.8782 z"
                             style="font-style:normal;font-variant:normal;font-weight:bold;font-stretch:normal;font-size:medium;line-height:0;font-family:'Fira Mono';-inkscape-font-specification:'Fira Mono Bold';letter-spacing:0px;word-spacing:0px;fill:#6e5b5f;fill-opacity:1;stroke:none;stroke-width:0.65019894"
                             id="path183"
                             inkscape:connector-curvature="0" />
                          <path
                             d="m -3472.2957,3183.9874 c -0.8323,0 -1.4738,0.4508 -2.0286,1.0924 -0.2081,-0.7456 -0.7283,-1.0924 -1.4218,-1.0924 -0.8149,0 -1.3524,0.4162 -1.9246,1.1964 l -0.1907,-0.8843 h -1.994 v 9.2068 h 2.3754 v -6.7794 c 0.3641,-0.4681 0.6762,-0.6068 0.9537,-0.6068 0.3641,0 0.4508,0.2427 0.4508,0.8843 v 6.5019 h 1.9419 v -6.7794 c 0.3641,-0.4681 0.6589,-0.6068 0.9536,-0.6068 0.3641,0 0.4508,0.2427 0.4508,0.8843 v 6.5019 h 2.3407 v -6.814 c 0,-1.8899 -0.6068,-2.7049 -1.9072,-2.7049 z"
                             style="font-style:normal;font-variant:normal;font-weight:bold;font-stretch:normal;font-size:medium;line-height:0;font-family:'Fira Mono';-inkscape-font-specification:'Fira Mono Bold';letter-spacing:0px;word-spacing:0px;fill:#6e5b5f;fill-opacity:1;stroke:none;stroke-width:0.65019894"
                             id="path185"
                             inkscape:connector-curvature="0" />
                          <path
                             d="m -3463.6158,3183.9874 c -0.867,0 -1.8032,0.3988 -2.5488,1.3351 l -0.1214,-1.023 h -2.4274 v 13.056 l 2.7395,-0.2947 v -4.2133 c 0.5549,0.6242 1.2831,0.9536 2.1847,0.9536 2.2367,0 3.5371,-2.0806 3.5371,-4.9242 0,-2.9996 -0.971,-4.8895 -3.3637,-4.8895 z m -0.8496,2.0287 c 0.8669,0 1.3871,0.6068 1.3871,2.8955 0,2.0806 -0.5722,2.8782 -1.5432,2.8782 -0.5721,0 -0.9709,-0.2601 -1.3524,-0.8149 v -3.8838 c 0.3988,-0.6763 0.867,-1.075 1.5085,-1.075 z"
                             style="font-style:normal;font-variant:normal;font-weight:bold;font-stretch:normal;font-size:medium;line-height:0;font-family:'Fira Mono';-inkscape-font-specification:'Fira Mono Bold';letter-spacing:0px;word-spacing:0px;fill:#6e5b5f;fill-opacity:1;stroke:none;stroke-width:0.65019894"
                             id="path187"
                             inkscape:connector-curvature="0" />
                          <path
                             d="m -3453.5142,3180.6411 h -5.4443 v 1.8726 h 2.7048 v 7.7503 c 0,2.1674 1.0057,3.5371 3.225,3.5371 1.179,0 2.046,-0.2774 2.6528,-0.6068 l -0.6415,-1.8379 c -0.3815,0.156 -0.8323,0.2774 -1.3177,0.2774 -0.7283,0 -1.1791,-0.2774 -1.1791,-1.023 z"
                             style="font-style:normal;font-variant:normal;font-weight:bold;font-stretch:normal;font-size:medium;line-height:0;font-family:'Fira Mono';-inkscape-font-specification:'Fira Mono Bold';letter-spacing:0px;word-spacing:0px;fill:#6e5b5f;fill-opacity:1;stroke:none;stroke-width:0.65019894"
                             id="path189"
                             inkscape:connector-curvature="0" />
                          <path
                             d="m -3445.5452,3189.7092 h 5.9645 c 0.035,-0.2774 0.052,-0.6762 0.052,-0.9883 0,-2.9649 -1.6818,-4.7335 -4.3173,-4.7335 -2.8955,0 -4.4907,2.202 -4.4907,4.9242 0,2.8609 1.6298,4.8895 4.7855,4.8895 1.5605,0 2.8088,-0.5202 3.6758,-1.2657 l -1.0924,-1.4911 c -0.7282,0.4681 -1.5258,0.7629 -2.358,0.7629 -1.179,0 -2.0286,-0.5896 -2.2194,-2.098 z m 1.6992,-3.8839 c 1.1617,0 1.6299,0.8843 1.6472,2.2194 h -3.381 c 0.1213,-1.5258 0.7629,-2.2194 1.7338,-2.2194 z"
                             style="font-style:normal;font-variant:normal;font-weight:bold;font-stretch:normal;font-size:medium;line-height:0;font-family:'Fira Mono';-inkscape-font-specification:'Fira Mono Bold';letter-spacing:0px;word-spacing:0px;fill:#6e5b5f;fill-opacity:1;stroke:none;stroke-width:0.65019894"
                             id="path191"
                             inkscape:connector-curvature="0" />
                          <path
                             d="m -3435.3915,3193.5063 1.7512,-3.4503 1.8206,3.4503 h 3.1036 l -3.173,-4.9415 2.7048,-4.2653 h -2.9129 l -1.4217,2.9476 -1.4738,-2.9476 h -3.0689 l 2.8608,4.3694 -3.1556,4.8374 z"
                             style="font-style:normal;font-variant:normal;font-weight:bold;font-stretch:normal;font-size:medium;line-height:0;font-family:'Fira Mono';-inkscape-font-specification:'Fira Mono Bold';letter-spacing:0px;word-spacing:0px;fill:#6e5b5f;fill-opacity:1;stroke:none;stroke-width:0.65019894"
                             id="path193"
                             inkscape:connector-curvature="0" />
                          <path
                             d="m -3423.1572,3179.4794 c -0.9536,0 -1.6298,0.6762 -1.6298,1.5431 0,0.8843 0.6762,1.5432 1.6298,1.5432 0.9536,0 1.6125,-0.6589 1.6125,-1.5432 0,-0.8669 -0.6589,-1.5431 -1.6125,-1.5431 z m 1.6472,4.8201 h -5.2536 v 1.8726 h 2.5141 v 5.4617 h -2.6008 v 1.8725 h 7.6983 v -1.8725 h -2.358 z"
                             style="font-style:normal;font-variant:normal;font-weight:bold;font-stretch:normal;font-size:medium;line-height:0;font-family:'Fira Mono';-inkscape-font-specification:'Fira Mono Bold';letter-spacing:0px;word-spacing:0px;fill:#6e5b5f;fill-opacity:1;stroke:none;stroke-width:0.65019894"
                             id="path195"
                             inkscape:connector-curvature="0" />
                          <path
                             d="m -3408.4435,3192.9688 -0.9016,-1.7512 c -0.4334,0.2428 -0.9709,0.4162 -1.6125,0.4162 -0.9189,0 -1.3177,-0.3468 -1.3177,-1.2657 v -4.1787 h 2.6875 l 0.2774,-1.8899 h -2.9649 v -2.3233 l -2.7395,0.3294 v 1.9939 h -1.9246 v 1.8899 h 1.9246 v 4.1787 c 0,2.1153 1.1443,3.433 3.5544,3.433 1.2657,0 2.2887,-0.3641 3.0169,-0.8323 z"
                             style="font-style:normal;font-variant:normal;font-weight:bold;font-stretch:normal;font-size:medium;line-height:0;font-family:'Fira Mono';-inkscape-font-specification:'Fira Mono Bold';letter-spacing:0px;word-spacing:0px;fill:#6e5b5f;fill-opacity:1;stroke:none;stroke-width:0.65019894"
                             id="path197"
                             inkscape:connector-curvature="0" />
                          <path
                             d="m -3397.6309,3184.2995 h -2.8089 l -1.9419,7.4556 -1.7859,-7.4556 h -2.8955 l 2.9128,9.2068 h 0.9537 c -0.5029,1.1791 -1.1617,1.6992 -2.9649,1.9246 l 0.3121,1.942 c 2.7915,-0.1561 4.3346,-1.4218 5.1495,-3.8666 z"
                             style="font-style:normal;font-variant:normal;font-weight:bold;font-stretch:normal;font-size:medium;line-height:0;font-family:'Fira Mono';-inkscape-font-specification:'Fira Mono Bold';letter-spacing:0px;word-spacing:0px;fill:#6e5b5f;fill-opacity:1;stroke:none;stroke-width:0.65019894"
                             id="path199"
                             inkscape:connector-curvature="0" />
                        </g>
                      </g>
                    </g>
                    <g
                       id="g173">
                      <path
                         style="fill:none;stroke:#6e5b5f;stroke-width:1.57560539px;stroke-linecap:butt;stroke-linejoin:miter;stroke-opacity:1"
                         d="m -3562.2154,3106.9177 1.5388,35.6972 41.852,19.6952"
                         id="path389"
                         inkscape:connector-curvature="0" />
                      <path
                         inkscape:connector-curvature="0"
                         id="path147"
                         d="m -3422.002,3058.1718 -30.131,31.8237"
                         style="fill:none;stroke:#6e5b5f;stroke-width:1.73338234px;stroke-linecap:butt;stroke-linejoin:miter;stroke-opacity:1" />
                      <path
                         sodipodi:nodetypes="cc"
                         inkscape:connector-curvature="0"
                         id="path137"
                         d="m -3452.133,3089.9955 -74.4813,-5.7554"
                         style="fill:none;stroke:#6e5b5f;stroke-width:1.73338234px;stroke-linecap:butt;stroke-linejoin:miter;stroke-opacity:1" />
                      <path
                         sodipodi:nodetypes="cccc"
                         inkscape:connector-curvature="0"
                         id="path135"
                         d="m -3526.6143,3084.2401 51.1212,-30.4695 53.4911,4.4012 14.5577,28.0996"
                         style="fill:none;stroke:#6e5b5f;stroke-width:1.73338234px;stroke-linecap:butt;stroke-linejoin:miter;stroke-opacity:1" />
                      <path
                         sodipodi:nodetypes="ccc"
                         inkscape:connector-curvature="0"
                         id="path139"
                         d="m -3452.133,3089.9955 11.1722,46.7201 -29.4541,-21.6673"
                         style="fill:none;stroke:#6e5b5f;stroke-width:1.73338234px;stroke-linecap:butt;stroke-linejoin:miter;stroke-opacity:1" />
                      <path
                         inkscape:connector-curvature="0"
                         id="path141"
                         d="m -3470.4149,3115.0483 18.282,-25.0528"
                         style="fill:none;stroke:#6e5b5f;stroke-width:1.73338234px;stroke-linecap:butt;stroke-linejoin:miter;stroke-opacity:1" />
                      <path
                         inkscape:connector-curvature="0"
                         id="path143"
                         d="m -3407.4443,3086.2714 -7.4482,25.3914 -37.2405,-21.6673"
                         style="fill:none;stroke:#6e5b5f;stroke-width:1.73338234px;stroke-linecap:butt;stroke-linejoin:miter;stroke-opacity:1" />
                      <path
                         inkscape:connector-curvature="0"
                         id="path149"
                         d="m -3407.4443,3086.2714 -68.0488,-32.5008"
                         style="fill:none;stroke:#6e5b5f;stroke-width:1.73338234px;stroke-linecap:butt;stroke-linejoin:miter;stroke-opacity:1" />
                      <ellipse
                         style="opacity:1;fill:#ba2141;fill-opacity:1;stroke:#ba2141;stroke-width:16.1376133;stroke-linecap:square;stroke-linejoin:miter;stroke-miterlimit:4;stroke-dasharray:none"
                         id="ellipse121"
                         cx="-3452.1328"
                         cy="3089.9956"
                         rx="9.2650166"
                         ry="9.2650175" />
                      <circle
                         r="4.6325083"
                         cy="3084.2402"
                         cx="-3526.6145"
                         id="path115"
                         style="opacity:1;fill:#ba2141;fill-opacity:1;stroke:#ba2141;stroke-width:8.06880569;stroke-linecap:square;stroke-linejoin:miter;stroke-miterlimit:4;stroke-dasharray:none" />
                      <circle
                         r="4.6325083"
                         style="opacity:1;fill:#ba2141;fill-opacity:1;stroke:#ba2141;stroke-width:8.06880569;stroke-linecap:square;stroke-linejoin:miter;stroke-miterlimit:4;stroke-dasharray:none"
                         id="ellipse117"
                         cx="-3475.4932"
                         cy="3053.7705" />
                      <ellipse
                         ry="9.2650175"
                         rx="9.2650166"
                         cy="3136.7156"
                         cx="-3440.9607"
                         id="ellipse123"
                         style="opacity:1;fill:#ba2141;fill-opacity:1;stroke:#ba2141;stroke-width:16.1376133;stroke-linecap:square;stroke-linejoin:miter;stroke-miterlimit:4;stroke-dasharray:none" />
                      <ellipse
                         style="opacity:1;fill:#ba2141;fill-opacity:1;stroke:#ba2141;stroke-width:4.03440332;stroke-linecap:square;stroke-linejoin:miter;stroke-miterlimit:4;stroke-dasharray:none"
                         id="ellipse125"
                         cx="-3422.002"
                         cy="3058.1719"
                         rx="2.3162541"
                         ry="2.3162544" />
                      <ellipse
                         ry="2.3162544"
                         rx="2.3162541"
                         cy="3115.0483"
                         cx="-3470.4148"
                         id="ellipse127"
                         style="opacity:1;fill:#ba2141;fill-opacity:1;stroke:#ba2141;stroke-width:4.03440332;stroke-linecap:square;stroke-linejoin:miter;stroke-miterlimit:4;stroke-dasharray:none" />
                      <ellipse
                         ry="2.3162544"
                         rx="2.3162541"
                         cy="3086.2715"
                         cx="-3407.4443"
                         id="ellipse129"
                         style="opacity:1;fill:#ba2141;fill-opacity:1;stroke:#ba2141;stroke-width:4.03440332;stroke-linecap:square;stroke-linejoin:miter;stroke-miterlimit:4;stroke-dasharray:none" />
                      <circle
                         r="4.6325083"
                         style="opacity:1;fill:#ba2141;fill-opacity:1;stroke:#ba2141;stroke-width:8.06880569;stroke-linecap:square;stroke-linejoin:miter;stroke-miterlimit:4;stroke-dasharray:none"
                         id="ellipse131"
                         cx="-3414.8926"
                         cy="3111.6628" />
                      <ellipse
                         style="opacity:1;fill:#6e5fad;fill-opacity:1;stroke:#6e5fad;stroke-width:4.03440332;stroke-linecap:square;stroke-linejoin:miter;stroke-miterlimit:4;stroke-dasharray:none"
                         id="ellipse124"
                         cx="-3562.2153"
                         cy="3106.9177"
                         rx="2.3162541"
                         ry="2.3162544" />
                      <path
                         inkscape:connector-curvature="0"
                         id="path134"
                         d="m -3560.6766,3142.6149 23.1309,-24.8015 21.1073,11.533 -2.3862,32.9637"
                         style="fill:none;stroke:#6e5b5f;stroke-width:1.57560539px;stroke-linecap:butt;stroke-linejoin:miter;stroke-opacity:1" />
                      <path
                         inkscape:connector-curvature="0"
                         id="path136"
                         d="m -3560.6766,3142.6149 44.2382,-13.2685"
                         style="fill:none;stroke:#6e5b5f;stroke-width:1.57560539px;stroke-linecap:butt;stroke-linejoin:miter;stroke-opacity:1" />
                      <circle
                         r="4.6325083"
                         cy="3129.3464"
                         cx="-3516.4382"
                         id="ellipse130"
                         style="opacity:1;fill:#6e5fad;fill-opacity:1;stroke:#6e5fad;stroke-width:8.06880569;stroke-linecap:square;stroke-linejoin:miter;stroke-miterlimit:4;stroke-dasharray:none" />
                      <ellipse
                         style="opacity:1;fill:#6e5fad;fill-opacity:1;stroke:#6e5fad;stroke-width:4.03440332;stroke-linecap:square;stroke-linejoin:miter;stroke-miterlimit:4;stroke-dasharray:none"
                         id="ellipse132"
                         cx="-3537.5457"
                         cy="3117.8135"
                         rx="2.3162541"
                         ry="2.3162544" />
                      <ellipse
                         ry="9.2650175"
                         rx="9.2650166"
                         cy="3142.615"
                         cx="-3560.6765"
                         id="ellipse122"
                         style="opacity:1;fill:#6e5fad;fill-opacity:1;stroke:#6e5fad;stroke-width:16.1376133;stroke-linecap:square;stroke-linejoin:miter;stroke-miterlimit:4;stroke-dasharray:none" />
                      <circle
                         r="4.6325083"
                         cy="3162.3101"
                         cx="-3518.8247"
                         id="ellipse119"
                         style="opacity:1;fill:#6e5fad;fill-opacity:1;stroke:#6e5fad;stroke-width:8.06880569;stroke-linecap:square;stroke-linejoin:miter;stroke-miterlimit:4;stroke-dasharray:none" />
                    </g>
                  </g>
                </g>
              </g>
            </g>
          </g>
        </g>
      </g>
    </g>
  </g>
</svg>
