<?xml version="1.0" encoding="UTF-8" standalone="no"?>
<!-- Created with Inkscape (http://www.inkscape.org/) -->

<svg
   xmlns:dc="http://purl.org/dc/elements/1.1/"
   xmlns:cc="http://creativecommons.org/ns#"
   xmlns:rdf="http://www.w3.org/1999/02/22-rdf-syntax-ns#"
   xmlns:svg="http://www.w3.org/2000/svg"
   xmlns="http://www.w3.org/2000/svg"
   xmlns:xlink="http://www.w3.org/1999/xlink"
   xmlns:sodipodi="http://sodipodi.sourceforge.net/DTD/sodipodi-0.dtd"
   xmlns:inkscape="http://www.inkscape.org/namespaces/inkscape"
   version="1.0"
   width="166.3804"
   height="191.81873"
   id="svg2811"
   inkscape:version="0.92.3 (2405546, 2018-03-11)"
   sodipodi:docname="hexicon.svg"
   inkscape:export-filename="/home/pacha/GitHub/gravity/docs/apple.png"
   inkscape:export-xdpi="90"
   inkscape:export-ydpi="90">
  <metadata
     id="metadata17">
    <rdf:RDF>
      <cc:Work
         rdf:about="">
        <dc:format>image/svg+xml</dc:format>
        <dc:type
           rdf:resource="http://purl.org/dc/dcmitype/StillImage" />
        <dc:title></dc:title>
      </cc:Work>
    </rdf:RDF>
  </metadata>
  <sodipodi:namedview
     pagecolor="#ffffff"
     bordercolor="#666666"
     borderopacity="1"
     objecttolerance="10"
     gridtolerance="10"
     guidetolerance="10"
     inkscape:pageopacity="0"
     inkscape:pageshadow="2"
     inkscape:window-width="1600"
     inkscape:window-height="832"
     id="namedview15"
     showgrid="false"
     fit-margin-top="0"
     fit-margin-left="0"
     fit-margin-right="0"
     fit-margin-bottom="0"
     inkscape:zoom="2.5600001"
     inkscape:cx="65.566927"
     inkscape:cy="96.216887"
     inkscape:window-x="0"
     inkscape:window-y="32"
     inkscape:window-maximized="1"
     inkscape:current-layer="g812"
     showguides="true"
     inkscape:guide-bbox="true"
     inkscape:measure-start="0,0"
     inkscape:measure-end="0,0">
    <sodipodi:guide
       position="150.73003,-303.81494"
       orientation="0,1"
       id="guide903"
       inkscape:locked="false" />
  </sodipodi:namedview>
  <defs
     id="defs2813">
    <inkscape:perspective
       sodipodi:type="inkscape:persp3d"
       inkscape:vp_x="0 : 882.13641 : 1"
       inkscape:vp_y="0 : 1000 : 0"
       inkscape:vp_z="1500 : 882.13641 : 1"
       inkscape:persp3d-origin="750 : 588.09094 : 1"
       id="perspective4362" />
    <clipPath
       id="clp12">
      <path
         d="m 45.315,71.927 h 12.92 v 15.867 h -12.92 z"
         id="path184"
         inkscape:connector-curvature="0" />
    </clipPath>
    <clipPath
       id="clp21">
      <path
         d="m 123.91,72.178 h 26.23 v 15.294 h -26.23 z"
         id="path592"
         inkscape:connector-curvature="0" />
    </clipPath>
    <clipPath
       id="clp9">
      <path
         d="m 413.96,49.857 h 31.76 v 8.719 h -31.76 z"
         id="path100"
         inkscape:connector-curvature="0" />
    </clipPath>
    <inkscape:perspective
       id="perspective4362-3"
       inkscape:persp3d-origin="750 : 588.09094 : 1"
       inkscape:vp_z="1500 : 882.13641 : 1"
       inkscape:vp_y="0 : 1000 : 0"
       inkscape:vp_x="0 : 882.13641 : 1"
       sodipodi:type="inkscape:persp3d" />
    <clipPath
       id="clp12-5">
      <path
         inkscape:connector-curvature="0"
         id="path184-6"
         d="m 45.315,71.927 h 12.92 v 15.867 h -12.92 z" />
    </clipPath>
    <clipPath
       id="clp21-2">
      <path
         inkscape:connector-curvature="0"
         id="path592-9"
         d="m 123.91,72.178 h 26.23 v 15.294 h -26.23 z" />
    </clipPath>
    <clipPath
       id="clp9-1">
      <path
         inkscape:connector-curvature="0"
         id="path100-2"
         d="m 413.96,49.857 h 31.76 v 8.719 h -31.76 z" />
    </clipPath>
    <linearGradient
       xlink:href="#0-7"
       gradientUnits="userSpaceOnUse"
       y2="545.15002"
       x2="0"
       y1="518.08002"
       id="0">
      <stop
         id="stop7"
         stop-color="#faf7f7" />
      <stop
         id="stop9"
         stop-color="#d4d4d4"
         offset="1" />
    </linearGradient>
    <linearGradient
       gradientUnits="userSpaceOnUse"
       y2="518.08002"
       x2="402.47"
       y1="545.15002"
       x1="403.44"
       id="1">
      <stop
         id="stop12"
         stop-color="#d3d3d3" />
      <stop
         id="stop14"
         stop-color="#fcf9f9"
         offset="1" />
    </linearGradient>
    <linearGradient
       y2="155.59"
       x2="20.030001"
       y1="261.26001"
       x1="18.6"
       gradientUnits="userSpaceOnUse"
       id="0-7"
       gradientTransform="matrix(0.43355,0,0,0.43481,-57.018323,-61.893693)">
      <stop
         id="stop11"
         stop-color="#2a2c2f" />
      <stop
         id="stop13"
         stop-color="#424649"
         offset="1" />
    </linearGradient>
    <clipPath
       id="id3">
      <path
         id="path16946"
         d="m 11600200,27707200 c 0,0 -65220,-175610 -667340,-130470 -572020,45170 -898140,40160 -998510,0 -105370,-40130 -195680,-65210 -341190,-95310 -120440,-20090 -366300,-45180 -301050,-40170 -125420,-15030 -240850,0 -240850,0 0,0 -25070,20080 40150,-85300 55200,-85300 170600,-125410 321110,-301060 48730,-56850 805430,-12790 863020,0 70270,15070 150550,10060 180660,0 30090,-10020 371280,-15030 521830,0 185200,40290 451640,57960 492000,57520 105900,-1160 145240,103060 160260,273650 15070,175630 25110,65250 -30090,321140 z"
         inkscape:connector-curvature="0" />
    </clipPath>
    <clipPath
       id="id2">
      <path
         id="path16943"
         d="m 11018100,29368000 c 0,0 -371290,90310 -426490,-40170 -30100,-65200 -50150,-566970 -275970,-727530 -230830,-155570 -332600,-290020 -824420,-666110 -150640,-115190 -294530,-196920 -349680,-292240 -40170,-70260 -45180,-165580 -90340,-200730 0,0 281020,-30100 732580,80280 0,0 -65250,220780 80290,296050 80280,40130 265950,316130 551940,451580 270920,125450 436500,577030 521800,822900 95360,270960 80290,275970 80290,275970 z"
         inkscape:connector-curvature="0" />
    </clipPath>
    <clipPath
       id="id1">
      <path
         id="path16940"
         d="m 9673400,29448300 c 0,0 361270,-70260 426490,-40160 65220,35150 135470,-411450 366280,-571980 265950,-180650 702480,-521840 1133980,-1128970 0,0 -95320,-175610 -516800,-120410 0,0 -10060,205710 -55180,285990 -50190,80290 -275970,411450 -562000,521830 -285990,110360 -506780,426490 -602090,697450 -95320,270960 -190680,356250 -190680,356250 z"
         inkscape:connector-curvature="0" />
    </clipPath>
    <linearGradient
       id="linearGradient13037">
      <stop
         id="stop13039"
         offset="0"
         style="stop-color:#999;stop-opacity:1" />
      <stop
         id="stop13041"
         offset="1"
         style="stop-color:#525252;stop-opacity:1" />
    </linearGradient>
    <linearGradient
       id="linearGradient12124">
      <stop
         id="stop12126"
         offset="0"
         style="stop-color:#4a4a4a;stop-opacity:1" />
      <stop
         id="stop12128"
         offset="1"
         style="stop-color:#adadad;stop-opacity:1" />
    </linearGradient>
    <linearGradient
       id="linearGradient11217">
      <stop
         id="stop11219"
         offset="0"
         style="stop-color:#999;stop-opacity:1" />
      <stop
         id="stop11221"
         offset="1"
         style="stop-color:white;stop-opacity:1" />
    </linearGradient>
    <linearGradient
       xlink:href="#linearGradient1012"
       id="linearGradient871" />
    <linearGradient
       gradientUnits="userSpaceOnUse"
       xlink:href="#linearGradient865"
       id="linearGradient1011"
       y2="24.17461"
       x2="53.211624"
       y1="180.92995"
       x1="77.291656" />
    <linearGradient
       gradientUnits="userSpaceOnUse"
       xlink:href="#linearGradient865"
       id="linearGradient1010"
       y2="40.053986"
       x2="38.977112"
       y1="-53.39077"
       x1="43.39798" />
    <linearGradient
       gradientTransform="scale(1.069323,0.935172)"
       gradientUnits="userSpaceOnUse"
       xlink:href="#linearGradient865"
       id="linearGradient870"
       y2="112.48578"
       x2="88.360741"
       y1="199.48994"
       x1="178.42355" />
    <linearGradient
       gradientTransform="scale(1.108489,0.902129)"
       gradientUnits="userSpaceOnUse"
       xlink:href="#linearGradient865"
       id="linearGradient864"
       y2="46.947098"
       x2="82.344437"
       y1="25.611177"
       x1="105.80702" />
    <radialGradient
       gradientUnits="userSpaceOnUse"
       xlink:href="#linearGradient1400"
       id="radialGradient858"
       fy="77.944687"
       fx="79.895966"
       r="68.379425"
       cy="77.944687"
       cx="79.895966" />
    <radialGradient
       gradientUnits="userSpaceOnUse"
       xlink:href="#linearGradient853"
       id="radialGradient852"
       fy="325.7662"
       fx="240.38737"
       r="200.73203"
       cy="477.83307"
       cx="227.00549" />
    <linearGradient
       id="linearGradient849">
      <stop
         id="stop850"
         offset="0"
         style="stop-color:white;stop-opacity:1" />
      <stop
         id="stop861"
         offset="0.3804014"
         style="stop-color:#1d1d1d;stop-opacity:0.56078434" />
      <stop
         id="stop862"
         offset="0.510472"
         style="stop-color:black;stop-opacity:0.30208334" />
      <stop
         id="stop860"
         offset="0.64054263"
         style="stop-color:black;stop-opacity:0.21568628" />
      <stop
         id="stop851"
         offset="1"
         style="stop-color:black;stop-opacity:0" />
    </linearGradient>
    <linearGradient
       id="linearGradient853">
      <stop
         id="stop1185"
         offset="0"
         style="stop-color:#477daf;stop-opacity:1" />
      <stop
         id="stop855"
         offset="1"
         style="stop-color:#020407;stop-opacity:1" />
    </linearGradient>
    <linearGradient
       id="linearGradient865">
      <stop
         id="stop866"
         offset="0"
         style="stop-color:white;stop-opacity:1" />
      <stop
         id="stop868"
         offset="1"
         style="stop-color:white;stop-opacity:0" />
    </linearGradient>
    <linearGradient
       id="linearGradient1012">
      <stop
         id="stop1013"
         offset="0"
         style="stop-color:black;stop-opacity:0.30578512" />
      <stop
         id="stop1014"
         offset="1"
         style="stop-color:black;stop-opacity:0" />
    </linearGradient>
    <linearGradient
       id="linearGradient1400">
      <stop
         id="stop1401"
         offset="0"
         style="stop-color:black;stop-opacity:0.67843139" />
      <stop
         id="stop1403"
         offset="0.56999999"
         style="stop-color:black;stop-opacity:0.32941177" />
      <stop
         id="stop1402"
         offset="1"
         style="stop-color:black;stop-opacity:0" />
    </linearGradient>
    <linearGradient
       gradientTransform="matrix(0.512474,0,0,0.512474,372.9769,173.2066)"
       gradientUnits="userSpaceOnUse"
       xlink:href="#linearGradient12124"
       id="linearGradient25235"
       y2="145.21245"
       x2="271.66251"
       y1="148.31908"
       x1="250.91864" />
    <linearGradient
       gradientTransform="matrix(0.512474,0,0,0.512474,372.9769,173.2066)"
       gradientUnits="userSpaceOnUse"
       xlink:href="#linearGradient11217"
       id="linearGradient25237"
       y2="125.60667"
       x2="177.69412"
       y1="167.02818"
       x1="250.95844" />
    <radialGradient
       gradientUnits="userSpaceOnUse"
       xlink:href="#linearGradient853"
       id="radialGradient25239"
       fy="325.7662"
       fx="240.38737"
       r="200.73203"
       cy="477.83307"
       cx="227.00549" />
    <linearGradient
       gradientTransform="matrix(0.183763,0,0,0.160709,234.2744,84.58468)"
       gradientUnits="userSpaceOnUse"
       xlink:href="#linearGradient865"
       id="linearGradient25241"
       y2="112.48578"
       x2="88.360741"
       y1="199.48994"
       x1="178.42355" />
    <linearGradient
       gradientTransform="matrix(-0.190494,0,0,0.155031,262.187,84.58468)"
       gradientUnits="userSpaceOnUse"
       xlink:href="#linearGradient865"
       id="linearGradient25243"
       y2="46.947098"
       x2="82.344437"
       y1="25.611177"
       x1="105.80702" />
    <linearGradient
       gradientTransform="matrix(0.512474,0,0,0.512474,372.569,173.2066)"
       gradientUnits="userSpaceOnUse"
       xlink:href="#linearGradient11217"
       id="linearGradient25247"
       y2="206.15578"
       x2="250.27042"
       y1="217.04466"
       x1="250.27271" />
    <linearGradient
       gradientTransform="matrix(0.512474,0,0,0.512474,372.5444,173.2066)"
       gradientUnits="userSpaceOnUse"
       xlink:href="#linearGradient12124"
       id="linearGradient25249"
       y2="216.97914"
       x2="249.15353"
       y1="232.72697"
       x1="249.06598" />
    <linearGradient
       gradientTransform="matrix(0.512474,0,0,0.512474,372.5691,182.9379)"
       gradientUnits="userSpaceOnUse"
       xlink:href="#linearGradient13037"
       id="linearGradient25251"
       y2="206.15578"
       x2="250.27042"
       y1="217.04466"
       x1="250.27271" />
  </defs>
  <g
     transform="translate(1996.8631,-3007.9065)"
     id="layer1">
    <g
       transform="translate(19.48863,19.49672)"
       id="g25472">
      <g
         id="g4353"
         transform="matrix(0.67573771,0,0,0.67573771,374.45067,977.3331)">
        <g
           transform="translate(80.542606)"
           id="g4347">
          <text
             xml:space="preserve"
             style="font-style:normal;font-weight:normal;font-size:59.19456482px;line-height:1.25;font-family:sans-serif;letter-spacing:0px;word-spacing:0px;fill:#000000;fill-opacity:1;stroke:none;stroke-width:1.47986412"
             x="-3557.9272"
             y="3134.1738"
             id="text65"><tspan
               sodipodi:role="line"
               id="tspan63"
               x="-3557.9272"
               y="3186.5471"
               style="stroke-width:1.47986412" /></text>
          <g
             id="g409"
             transform="rotate(30,-3495.4951,3118.0532)">
            <g
               id="g474">
              <g
                 id="g499"
                 transform="matrix(1.1493374,0,0,1.1493374,519.92338,-449.13226)">
                <g
                   id="g547"
                   transform="matrix(0.95294218,0,0,0.95294218,-159.12099,158.76149)">
                  <g
                     id="g609"
                     transform="translate(0.30322862,0.52510272)" />
                </g>
              </g>
              <g
                 id="g725">
                <g
                   id="g812"
                   transform="rotate(60,-3495.4951,3118.053)">
                  <g
                     id="g879"
                     transform="rotate(-30,-3495.4951,3118.053)">
                    <path
                       transform="matrix(0,0.08149567,-0.08132553,0,-3512.1283,3570.4529)"
                       inkscape:transform-center-y="7.9344316e-05"
                       inkscape:transform-center-x="1.5731476e-05"
                       d="m -4700.408,1269.1126 -1701.6109,-10e-5 -850.8053,-1473.63823 850.8055,-1473.63817 1701.6108,10e-5 850.8054,1473.63823 z"
                       inkscape:randomized="0"
                       inkscape:rounded="0"
                       inkscape:flatsided="true"
                       sodipodi:arg2="1.5707963"
                       sodipodi:arg1="1.0471976"
                       sodipodi:r2="1473.6381"
                       sodipodi:r1="1701.6108"
                       sodipodi:cy="-204.52565"
                       sodipodi:cx="-5551.2134"
                       sodipodi:sides="6"
                       id="path4524"
                       style="fill:#ffffff;fill-opacity:1;stroke:#6e5b5f;stroke-width:73.99320221;stroke-miterlimit:4;stroke-dasharray:none;stroke-opacity:1"
                       sodipodi:type="star" />
                    <path
                       style="fill:none;stroke:#6e5b5f;stroke-width:1.57560539px;stroke-linecap:butt;stroke-linejoin:miter;stroke-opacity:1"
                       d="m -3579.9417,3099.7036 1.5388,35.6972 41.852,19.6952"
                       id="path389"
                       inkscape:connector-curvature="0"
                       transform="matrix(1.0952521,0,0,1.0952521,337.37184,-266.08665)" />
                    <path
                       inkscape:connector-curvature="0"
                       id="path147"
                       d="m -3466.1029,3001.5434 -30.131,31.8237"
                       style="fill:none;stroke:#6e5b5f;stroke-width:1.73338234px;stroke-linecap:butt;stroke-linejoin:miter;stroke-opacity:1"
                       transform="matrix(1.0952521,0,0,1.0952521,337.37184,-266.08665)" />
                    <path
                       sodipodi:nodetypes="cc"
                       inkscape:connector-curvature="0"
                       id="path137"
                       d="m -3496.2339,3033.3671 -74.4813,-5.7554"
                       style="fill:none;stroke:#6e5b5f;stroke-width:1.73338234px;stroke-linecap:butt;stroke-linejoin:miter;stroke-opacity:1"
                       transform="matrix(1.0952521,0,0,1.0952521,337.37184,-266.08665)" />
                    <path
                       sodipodi:nodetypes="cccc"
                       inkscape:connector-curvature="0"
                       id="path135"
                       d="m -3570.7152,3027.6117 51.1212,-30.4695 53.4911,4.4012 14.5577,28.0996"
                       style="fill:none;stroke:#6e5b5f;stroke-width:1.73338234px;stroke-linecap:butt;stroke-linejoin:miter;stroke-opacity:1"
                       transform="matrix(1.0952521,0,0,1.0952521,337.37184,-266.08665)" />
                    <path
                       sodipodi:nodetypes="ccc"
                       inkscape:connector-curvature="0"
                       id="path139"
                       d="m -3496.2339,3033.3671 11.1722,46.7201 -29.4541,-21.6673"
                       style="fill:none;stroke:#6e5b5f;stroke-width:1.73338234px;stroke-linecap:butt;stroke-linejoin:miter;stroke-opacity:1"
                       transform="matrix(1.0952521,0,0,1.0952521,337.37184,-266.08665)" />
                    <path
                       inkscape:connector-curvature="0"
                       id="path141"
                       d="m -3514.5158,3058.4199 18.282,-25.0528"
                       style="fill:none;stroke:#6e5b5f;stroke-width:1.73338234px;stroke-linecap:butt;stroke-linejoin:miter;stroke-opacity:1"
                       transform="matrix(1.0952521,0,0,1.0952521,337.37184,-266.08665)" />
                    <path
                       inkscape:connector-curvature="0"
                       id="path143"
                       d="m -3451.5452,3029.643 -7.4482,25.3914 -37.2405,-21.6673"
                       style="fill:none;stroke:#6e5b5f;stroke-width:1.73338234px;stroke-linecap:butt;stroke-linejoin:miter;stroke-opacity:1"
                       transform="matrix(1.0952521,0,0,1.0952521,337.37184,-266.08665)" />
                    <path
                       inkscape:connector-curvature="0"
                       id="path149"
                       d="m -3451.5452,3029.643 -68.0488,-32.5008"
                       style="fill:none;stroke:#6e5b5f;stroke-width:1.73338234px;stroke-linecap:butt;stroke-linejoin:miter;stroke-opacity:1"
                       transform="matrix(1.0952521,0,0,1.0952521,337.37184,-266.08665)" />
                    <ellipse
                       style="opacity:1;fill:#e6006e;fill-opacity:1;stroke:#e6006e;stroke-width:16.1376133;stroke-linecap:square;stroke-linejoin:miter;stroke-miterlimit:4;stroke-dasharray:none"
                       id="ellipse121"
                       cx="-3496.2339"
                       cy="3033.3672"
                       rx="9.2650166"
                       ry="9.2650175"
                       transform="matrix(1.0952521,0,0,1.0952521,337.37184,-266.08665)" />
                    <circle
                       r="4.6325083"
                       cy="3027.6118"
                       cx="-3570.7156"
                       id="path115"
                       style="opacity:1;fill:#e6006e;fill-opacity:1;stroke:#e6006e;stroke-width:8.06880569;stroke-linecap:square;stroke-linejoin:miter;stroke-miterlimit:4;stroke-dasharray:none"
                       transform="matrix(1.0952521,0,0,1.0952521,337.37184,-266.08665)" />
                    <circle
                       r="4.6325083"
                       style="opacity:1;fill:#e6006e;fill-opacity:1;stroke:#e6006e;stroke-width:8.06880569;stroke-linecap:square;stroke-linejoin:miter;stroke-miterlimit:4;stroke-dasharray:none"
                       id="ellipse117"
                       cx="-3519.5942"
                       cy="2997.1421"
                       transform="matrix(1.0952521,0,0,1.0952521,337.37184,-266.08665)" />
                    <ellipse
                       ry="9.2650175"
                       rx="9.2650166"
                       cy="3080.0872"
                       cx="-3485.0618"
                       id="ellipse123"
                       style="opacity:1;fill:#e6006e;fill-opacity:1;stroke:#e6006e;stroke-width:16.1376133;stroke-linecap:square;stroke-linejoin:miter;stroke-miterlimit:4;stroke-dasharray:none"
                       transform="matrix(1.0952521,0,0,1.0952521,337.37184,-266.08665)" />
                    <ellipse
                       style="opacity:1;fill:#e6006e;fill-opacity:1;stroke:#e6006e;stroke-width:4.03440332;stroke-linecap:square;stroke-linejoin:miter;stroke-miterlimit:4;stroke-dasharray:none"
                       id="ellipse125"
                       cx="-3466.103"
                       cy="3001.5435"
                       rx="2.3162541"
                       ry="2.3162544"
                       transform="matrix(1.0952521,0,0,1.0952521,337.37184,-266.08665)" />
                    <ellipse
                       ry="2.3162544"
                       rx="2.3162541"
                       cy="3058.4199"
                       cx="-3514.5159"
                       id="ellipse127"
                       style="opacity:1;fill:#e6006e;fill-opacity:1;stroke:#e6006e;stroke-width:4.03440332;stroke-linecap:square;stroke-linejoin:miter;stroke-miterlimit:4;stroke-dasharray:none"
                       transform="matrix(1.0952521,0,0,1.0952521,337.37184,-266.08665)" />
                    <ellipse
                       ry="2.3162544"
                       rx="2.3162541"
                       cy="3029.6431"
                       cx="-3451.5454"
                       id="ellipse129"
                       style="opacity:1;fill:#e6006e;fill-opacity:1;stroke:#e6006e;stroke-width:4.03440332;stroke-linecap:square;stroke-linejoin:miter;stroke-miterlimit:4;stroke-dasharray:none"
                       transform="matrix(1.0952521,0,0,1.0952521,337.37184,-266.08665)" />
                    <circle
                       r="4.6325083"
                       style="opacity:1;fill:#e6006e;fill-opacity:1;stroke:#e6006e;stroke-width:8.06880569;stroke-linecap:square;stroke-linejoin:miter;stroke-miterlimit:4;stroke-dasharray:none"
                       id="ellipse131"
                       cx="-3458.9937"
                       cy="3055.0344"
                       transform="matrix(1.0952521,0,0,1.0952521,337.37184,-266.08665)" />
                    <ellipse
                       style="opacity:1;fill:#0043a2;fill-opacity:1;stroke:#0043a2;stroke-width:4.03440332;stroke-linecap:square;stroke-linejoin:miter;stroke-miterlimit:4;stroke-dasharray:none"
                       id="ellipse124"
                       cx="-3579.9417"
                       cy="3099.7036"
                       rx="2.3162541"
                       ry="2.3162544"
                       transform="matrix(1.0952521,0,0,1.0952521,337.37184,-266.08665)" />
                    <path
                       inkscape:connector-curvature="0"
                       id="path134"
                       d="m -3578.4029,3135.4008 23.1309,-24.8015 21.1073,11.533 -2.3862,32.9637"
                       style="fill:none;stroke:#6e5b5f;stroke-width:1.57560539px;stroke-linecap:butt;stroke-linejoin:miter;stroke-opacity:1"
                       transform="matrix(1.0952521,0,0,1.0952521,337.37184,-266.08665)" />
                    <path
                       inkscape:connector-curvature="0"
                       id="path136"
                       d="m -3578.4029,3135.4008 44.2382,-13.2685"
                       style="fill:none;stroke:#6e5b5f;stroke-width:1.57560539px;stroke-linecap:butt;stroke-linejoin:miter;stroke-opacity:1"
                       transform="matrix(1.0952521,0,0,1.0952521,337.37184,-266.08665)" />
                    <circle
                       r="4.6325083"
                       cy="3122.1323"
                       cx="-3534.1646"
                       id="ellipse130"
                       style="opacity:1;fill:#0043a2;fill-opacity:1;stroke:#0043a2;stroke-width:8.06880569;stroke-linecap:square;stroke-linejoin:miter;stroke-miterlimit:4;stroke-dasharray:none"
                       transform="matrix(1.0952521,0,0,1.0952521,337.37184,-266.08665)" />
                    <ellipse
                       style="opacity:1;fill:#0043a2;fill-opacity:1;stroke:#0043a2;stroke-width:4.03440332;stroke-linecap:square;stroke-linejoin:miter;stroke-miterlimit:4;stroke-dasharray:none"
                       id="ellipse132"
                       cx="-3555.272"
                       cy="3110.5994"
                       rx="2.3162541"
                       ry="2.3162544"
                       transform="matrix(1.0952521,0,0,1.0952521,337.37184,-266.08665)" />
                    <ellipse
                       ry="9.2650175"
                       rx="9.2650166"
                       cy="3135.4009"
                       cx="-3578.4028"
                       id="ellipse122"
                       style="opacity:1;fill:#0043a2;fill-opacity:1;stroke:#0043a2;stroke-width:16.1376133;stroke-linecap:square;stroke-linejoin:miter;stroke-miterlimit:4;stroke-dasharray:none"
                       transform="matrix(1.0952521,0,0,1.0952521,337.37184,-266.08665)" />
                    <circle
                       r="4.6325083"
                       cy="3155.0959"
                       cx="-3536.551"
                       id="ellipse119"
                       style="opacity:1;fill:#0043a2;fill-opacity:1;stroke:#0043a2;stroke-width:8.06880569;stroke-linecap:square;stroke-linejoin:miter;stroke-miterlimit:4;stroke-dasharray:none"
                       transform="matrix(1.0952521,0,0,1.0952521,337.37184,-266.08665)" />
                    <path
                       sodipodi:nodetypes="ccc"
                       style="fill:none;stroke:#6e5b5f;stroke-width:1.57560539px;stroke-linecap:butt;stroke-linejoin:miter;stroke-opacity:1"
                       d="m -3463.9371,3160.6744 -33.0442,7.6312 -0.5658,24.046"
                       id="path611"
                       inkscape:connector-curvature="0"
                       transform="matrix(1.0952521,0,0,1.0952521,337.37184,-266.08665)" />
                    <path
                       style="fill:none;stroke:#6e5b5f;stroke-width:1.57560539px;stroke-linecap:butt;stroke-linejoin:miter;stroke-opacity:1"
                       d="m -3463.9371,3160.6744 -33.61,31.6772"
                       id="path613"
                       inkscape:connector-curvature="0"
                       transform="matrix(1.0952521,0,0,1.0952521,337.37184,-266.08665)" />
                    <circle
                       transform="matrix(-0.54762604,0.94851613,0.94851613,0.54762604,337.37184,-266.08665)"
                       style="opacity:1;fill:#0043a2;fill-opacity:1;stroke:#0043a2;stroke-width:8.06880569;stroke-linecap:square;stroke-linejoin:miter;stroke-miterlimit:4;stroke-dasharray:none"
                       id="circle615"
                       cx="4513.4312"
                       cy="-1432.7887"
                       r="4.6325083" />
                    <ellipse
                       transform="matrix(-0.54762604,0.94851613,0.94851613,0.54762604,337.37184,-266.08665)"
                       ry="2.3162544"
                       rx="2.3162541"
                       cy="-1444.3217"
                       cx="4492.3237"
                       id="ellipse617"
                       style="opacity:1;fill:#0043a2;fill-opacity:1;stroke:#0043a2;stroke-width:4.03440332;stroke-linecap:square;stroke-linejoin:miter;stroke-miterlimit:4;stroke-dasharray:none" />
                    <ellipse
                       transform="matrix(-0.54762604,0.94851613,0.94851613,0.54762604,337.37184,-266.08665)"
                       style="opacity:1;fill:#0043a2;fill-opacity:1;stroke:#0043a2;stroke-width:16.1376133;stroke-linecap:square;stroke-linejoin:miter;stroke-miterlimit:4;stroke-dasharray:none"
                       id="ellipse619"
                       cx="4469.1929"
                       cy="-1419.5201"
                       rx="9.2650166"
                       ry="9.2650175" />
                    <path
                       id="path727"
                       style="font-style:normal;font-variant:normal;font-weight:600;font-stretch:ultra-condensed;font-size:medium;line-height:0.80000001;font-family:'Fira Sans Compressed';-inkscape-font-specification:'Fira Sans Compressed Semi-Bold Ultra-Condensed';text-align:center;letter-spacing:0px;word-spacing:0px;text-anchor:middle;fill:#6e5b5f;fill-opacity:1;stroke:none;stroke-width:0.68930405"
                       d="m -3423.535,3162.1577 -0.01,9.7881 19.0799,0.011 0.01,-9.733 h -2.8675 v 5.8178 h -5.4317 v -4.77 h -2.8124 v 4.77 h -5.1284 v -5.4593 z"
                       inkscape:connector-curvature="0" />
                    <path
                       id="path729"
                       style="font-style:normal;font-variant:normal;font-weight:600;font-stretch:ultra-condensed;font-size:medium;line-height:0.80000001;font-family:'Fira Sans Compressed';-inkscape-font-specification:'Fira Sans Compressed Semi-Bold Ultra-Condensed';text-align:center;letter-spacing:0px;word-spacing:0px;text-anchor:middle;fill:#6e5b5f;fill-opacity:1;stroke:none;stroke-width:0.68930405"
                       d="m -3423.9716,3153.8053 c 0,4.0807 3.1944,7.143 9.9496,7.1468 6.8379,0 10.0104,-2.9447 10.0127,-7.1356 0,-2.2609 -1.1283,-3.9435 -2.3408,-5.0747 l -2.1241,1.8187 c 0.744,0.8827 1.4053,1.7101 1.4046,2.9785 0,2.0127 -1.7941,3.3628 -6.9501,3.36 -5.3215,0 -7.0026,-1.3826 -7.0015,-3.3403 6e-4,-1.0753 0.4698,-1.9297 1.2699,-2.8116 l -2.1771,-1.8486 c -1.2692,1.3504 -2.042,2.8389 -2.0432,4.9068 z"
                       inkscape:connector-curvature="0" />
                    <path
                       id="path731"
                       style="font-style:normal;font-variant:normal;font-weight:600;font-stretch:ultra-condensed;font-size:medium;line-height:0.80000001;font-family:'Fira Sans Compressed';-inkscape-font-specification:'Fira Sans Compressed Semi-Bold Ultra-Condensed';text-align:center;letter-spacing:0px;word-spacing:0px;text-anchor:middle;fill:#6e5b5f;fill-opacity:1;stroke:none;stroke-width:0.68930405"
                       d="m -3423.9645,3141.1238 c 0,4.4943 3.3047,7.1154 9.9771,7.1192 6.8104,0 9.9827,-2.6137 9.9852,-7.108 0,-4.4943 -3.2771,-7.1155 -9.9772,-7.1192 -6.8103,0 -9.9826,2.6413 -9.9851,7.108 z m 2.9227,0 c 0,-2.0403 1.7939,-3.0595 7.0601,-3.0565 5.349,0 7.058,0.9965 7.0568,3.0644 0,2.0128 -1.7112,3.0596 -7.0602,3.0566 -5.2662,0 -7.0578,-1.0242 -7.0567,-3.0645 z"
                       inkscape:connector-curvature="0" />
                    <path
                       id="path733"
                       style="font-style:normal;font-variant:normal;font-weight:600;font-stretch:ultra-condensed;font-size:medium;line-height:0.80000001;font-family:'Fira Sans Compressed';-inkscape-font-specification:'Fira Sans Compressed Semi-Bold Ultra-Condensed';text-align:center;letter-spacing:0px;word-spacing:0px;text-anchor:middle;fill:#6e5b5f;fill-opacity:1;stroke:none;stroke-width:0.68930405"
                       d="m -3423.5111,3119.4501 v 3.419 h 8.6025 c 2.8399,0 5.4319,-0.3003 6.8106,-0.5477 l -15.4153,4.4856 v 4.8527 l 19.0799,0.011 v -3.4189 h -7.6375 c -3.5016,0 -5.9282,0.3275 -7.7481,0.5195 l 15.3878,-4.4581 v -4.8527 z"
                       inkscape:connector-curvature="0" />
                    <path
                       id="path735"
                       style="font-style:normal;font-variant:normal;font-weight:600;font-stretch:ultra-condensed;font-size:medium;line-height:0.80000001;font-family:'Fira Sans Compressed';-inkscape-font-specification:'Fira Sans Compressed Semi-Bold Ultra-Condensed';text-align:center;letter-spacing:0px;word-spacing:0px;text-anchor:middle;fill:#6e5b5f;fill-opacity:1;stroke:none;stroke-width:0.68930405"
                       d="m -3423.9471,3109.9974 c 0,4.4943 3.3048,7.1154 9.9772,7.1192 6.8104,0 9.9826,-2.6137 9.9851,-7.108 0,-4.4942 -3.2771,-7.1155 -9.9772,-7.1192 -6.8103,0 -9.9826,2.6413 -9.9851,7.108 z m 2.9227,0 c 0,-2.0403 1.794,-3.0595 7.0602,-3.0565 5.349,0 7.0579,0.9965 7.0567,3.0644 0,2.0128 -1.7112,3.0596 -7.0602,3.0566 -5.2662,0 -7.0578,-1.0241 -7.0567,-3.0645 z"
                       inkscape:connector-curvature="0" />
                    <path
                       id="path737"
                       style="font-style:normal;font-variant:normal;font-weight:600;font-stretch:ultra-condensed;font-size:medium;line-height:0.80000001;font-family:'Fira Sans Compressed';-inkscape-font-specification:'Fira Sans Compressed Semi-Bold Ultra-Condensed';text-align:center;letter-spacing:0px;word-spacing:0px;text-anchor:middle;fill:#6e5b5f;fill-opacity:1;stroke:none;stroke-width:0.68930405"
                       d="m -3423.4924,3085.9749 v 4.9079 l 13.2611,2.103 -13.2635,2.281 v 4.8251 l 19.0792,1.1963 v -3.6395 l -7.7477,-0.2525 c -2.702,-0.084 -5.1834,-0.1132 -7.8029,0 l 13.4842,-2.5014 v -3.6671 l -13.4814,-2.3789 c 2.1781,0.056 4.963,-0.025 7.7202,-0.1059 l 7.8307,-0.2438 v -3.6947 z"
                       inkscape:connector-curvature="0" />
                    <path
                       id="path739"
                       style="font-style:normal;font-variant:normal;font-weight:600;font-stretch:ultra-condensed;font-size:medium;line-height:0.80000001;font-family:'Fira Sans Compressed';-inkscape-font-specification:'Fira Sans Compressed Semi-Bold Ultra-Condensed';text-align:center;letter-spacing:0px;word-spacing:0px;text-anchor:middle;fill:#6e5b5f;fill-opacity:1;stroke:none;stroke-width:0.68930405"
                       d="m -3423.4882,3078.4749 v 3.9152 l 19.0799,0.011 v -3.9152 z"
                       inkscape:connector-curvature="0" />
                    <path
                       id="path741"
                       style="font-style:normal;font-variant:normal;font-weight:600;font-stretch:ultra-condensed;font-size:medium;line-height:0.80000001;font-family:'Fira Sans Compressed';-inkscape-font-specification:'Fira Sans Compressed Semi-Bold Ultra-Condensed';text-align:center;letter-spacing:0px;word-spacing:0px;text-anchor:middle;fill:#6e5b5f;fill-opacity:1;stroke:none;stroke-width:0.68930405"
                       d="m -3423.9241,3068.9886 c 0,4.0806 3.1944,7.143 9.9496,7.1468 6.8379,0 10.0103,-2.9447 10.0127,-7.1356 0,-2.261 -1.1283,-3.9436 -2.3409,-5.0746 l -2.124,1.8185 c 0.7439,0.8828 1.4052,1.7103 1.4045,2.9786 0,2.0128 -1.794,3.3628 -6.95,3.3599 -5.3215,0 -7.0027,-1.3825 -7.0016,-3.3401 6e-4,-1.0753 0.4699,-1.9298 1.27,-2.8116 l -2.1772,-1.8487 c -1.2691,1.3504 -2.042,2.8389 -2.0431,4.9068 z"
                       inkscape:connector-curvature="0" />
                    <path
                       id="path743"
                       style="font-style:normal;font-variant:normal;font-weight:600;font-stretch:ultra-condensed;font-size:medium;line-height:0.80000001;font-family:'Fira Sans Compressed';-inkscape-font-specification:'Fira Sans Compressed Semi-Bold Ultra-Condensed';text-align:center;letter-spacing:0px;word-spacing:0px;text-anchor:middle;fill:#6e5b5f;fill-opacity:1;stroke:none;stroke-width:0.68930405"
                       d="m -3401.391,3175.5202 c 0,4.0807 3.1943,7.143 9.9495,7.1468 6.8379,0 10.0103,-2.9446 10.0127,-7.1356 0,-2.2609 -1.1282,-3.9434 -2.3408,-5.0746 l -2.1241,1.8186 c 0.744,0.8827 1.4052,1.7102 1.4045,2.9786 0,2.0127 -1.7941,3.3628 -6.9501,3.3599 -5.3213,0 -7.0025,-1.3825 -7.0014,-3.3402 6e-4,-1.0753 0.4698,-1.9298 1.2699,-2.8116 l -2.1772,-1.8486 c -1.269,1.3504 -2.0419,2.8388 -2.043,4.9067 z"
                       inkscape:connector-curvature="0" />
                    <path
                       id="path745"
                       style="font-style:normal;font-variant:normal;font-weight:600;font-stretch:ultra-condensed;font-size:medium;line-height:0.80000001;font-family:'Fira Sans Compressed';-inkscape-font-specification:'Fira Sans Compressed Semi-Bold Ultra-Condensed';text-align:center;letter-spacing:0px;word-spacing:0px;text-anchor:middle;fill:#6e5b5f;fill-opacity:1;stroke:none;stroke-width:0.68930405"
                       d="m -3401.3839,3162.8387 c 0,4.4943 3.3046,7.1155 9.9771,7.1192 6.8103,0 9.9826,-2.6137 9.9851,-7.108 0,-4.4942 -3.2771,-7.1154 -9.9771,-7.1192 -6.8103,0 -9.9826,2.6413 -9.9851,7.108 z m 2.9226,0 c 0,-2.0403 1.7939,-3.0595 7.0602,-3.0566 5.349,0 7.0579,0.9966 7.0568,3.0645 0,2.0128 -1.7112,3.0595 -7.0602,3.0565 -5.2663,0 -7.058,-1.024 -7.0568,-3.0644 z"
                       inkscape:connector-curvature="0" />
                    <path
                       id="path747"
                       style="font-style:normal;font-variant:normal;font-weight:600;font-stretch:ultra-condensed;font-size:medium;line-height:0.80000001;font-family:'Fira Sans Compressed';-inkscape-font-specification:'Fira Sans Compressed Semi-Bold Ultra-Condensed';text-align:center;letter-spacing:0px;word-spacing:0px;text-anchor:middle;fill:#6e5b5f;fill-opacity:1;stroke:none;stroke-width:0.68930405"
                       d="m -3400.9294,3138.8163 v 4.9079 l 13.261,2.1029 -13.2635,2.2811 v 4.8251 l 19.0794,1.1963 v -3.6395 l -7.7477,-0.2526 c -2.702,-0.085 -5.1835,-0.1132 -7.8029,0 l 13.4842,-2.5016 v -3.6671 l -13.4815,-2.3787 c 2.1782,0.056 4.963,-0.025 7.7203,-0.1059 l 7.8306,-0.2438 v -3.6947 z"
                       inkscape:connector-curvature="0" />
                    <path
                       id="path749"
                       style="font-style:normal;font-variant:normal;font-weight:600;font-stretch:ultra-condensed;font-size:medium;line-height:0.80000001;font-family:'Fira Sans Compressed';-inkscape-font-specification:'Fira Sans Compressed Semi-Bold Ultra-Condensed';text-align:center;letter-spacing:0px;word-spacing:0px;text-anchor:middle;fill:#6e5b5f;fill-opacity:1;stroke:none;stroke-width:0.68930405"
                       d="m -3400.9248,3130.627 v 4.6045 l 19.08,0.011 v -3.9152 h -6.5898 l 6e-4,-1.0478 c 0,-4.2461 -2.0365,-6.8391 -6.3653,-6.8415 -4.0256,0 -6.1225,2.5057 -6.1251,7.193 z m 9.6503,-0.078 -4e-4,0.772 h -6.8379 l 5e-4,-0.8272 c 0,-2.1782 1.0494,-3.06 3.3379,-3.0587 2.5918,0 3.5012,0.9395 3.4999,3.1177 z"
                       inkscape:connector-curvature="0" />
                    <path
                       id="path751"
                       style="font-style:normal;font-variant:normal;font-weight:600;font-stretch:ultra-condensed;font-size:medium;line-height:0.80000001;font-family:'Fira Sans Compressed';-inkscape-font-specification:'Fira Sans Compressed Semi-Bold Ultra-Condensed';text-align:center;letter-spacing:0px;word-spacing:0px;text-anchor:middle;fill:#6e5b5f;fill-opacity:1;stroke:none;stroke-width:0.68930405"
                       d="m -3400.9176,3117.6917 v 3.9153 l 19.08,0.011 0.01,-9.5675 -3.1431,-0.4154 v 6.0658 z"
                       inkscape:connector-curvature="0" />
                    <path
                       id="path753"
                       style="font-style:normal;font-variant:normal;font-weight:600;font-stretch:ultra-condensed;font-size:medium;line-height:0.80000001;font-family:'Fira Sans Compressed';-inkscape-font-specification:'Fira Sans Compressed Semi-Bold Ultra-Condensed';text-align:center;letter-spacing:0px;word-spacing:0px;text-anchor:middle;fill:#6e5b5f;fill-opacity:1;stroke:none;stroke-width:0.68930405"
                       d="m -3400.9078,3100.1869 -0.01,9.7881 19.08,0.011 0.01,-9.733 h -2.8675 v 5.8177 h -5.4318 v -4.7699 h -2.8123 v 4.7699 h -5.1284 v -5.4592 z"
                       inkscape:connector-curvature="0" />
                    <path
                       id="path755"
                       style="font-style:normal;font-variant:normal;font-weight:600;font-stretch:ultra-condensed;font-size:medium;line-height:0.80000001;font-family:'Fira Sans Compressed';-inkscape-font-specification:'Fira Sans Compressed Semi-Bold Ultra-Condensed';text-align:center;letter-spacing:0px;word-spacing:0px;text-anchor:middle;fill:#6e5b5f;fill-opacity:1;stroke:none;stroke-width:0.68930405"
                       d="m -3392.1068,3090.6354 -8.7933,-4.1131 v 3.9428 l 6.5057,2.4575 -6.5084,2.2849 v 4.0807 l 8.9357,-4.0205 10.1441,4.3621 v -3.998 l -7.6912,-2.6512 7.6942,-2.7529 v -4.0807 z"
                       inkscape:connector-curvature="0" />
                    <path
                       id="path757"
                       style="font-style:normal;font-variant:normal;font-weight:600;font-stretch:ultra-condensed;font-size:medium;line-height:0.80000001;font-family:'Fira Sans Compressed';-inkscape-font-specification:'Fira Sans Compressed Semi-Bold Ultra-Condensed';text-align:center;letter-spacing:0px;word-spacing:0px;text-anchor:middle;fill:#6e5b5f;fill-opacity:1;stroke:none;stroke-width:0.68930405"
                       d="m -3400.897,3080.8571 v 3.9152 l 19.08,0.011 v -3.9152 z"
                       inkscape:connector-curvature="0" />
                    <path
                       id="path759"
                       style="font-style:normal;font-variant:normal;font-weight:600;font-stretch:ultra-condensed;font-size:medium;line-height:0.80000001;font-family:'Fira Sans Compressed';-inkscape-font-specification:'Fira Sans Compressed Semi-Bold Ultra-Condensed';text-align:center;letter-spacing:0px;word-spacing:0px;text-anchor:middle;fill:#6e5b5f;fill-opacity:1;stroke:none;stroke-width:0.68930405"
                       d="m -3400.8893,3067.1248 -0.01,12.1042 h 3.0054 v -3.9979 l 16.0746,0.01 v -3.8877 l -16.0746,-0.01 v -3.805 z"
                       inkscape:connector-curvature="0" />
                    <path
                       id="path761"
                       style="font-style:normal;font-variant:normal;font-weight:600;font-stretch:ultra-condensed;font-size:medium;line-height:0.80000001;font-family:'Fira Sans Compressed';-inkscape-font-specification:'Fira Sans Compressed Semi-Bold Ultra-Condensed';text-align:center;letter-spacing:0px;word-spacing:0px;text-anchor:middle;fill:#6e5b5f;fill-opacity:1;stroke:none;stroke-width:0.68930405"
                       d="m -3400.8816,3053.4391 v 3.9429 l 8.7663,2.9551 -8.7696,2.9453 v 4.0807 l 11.8864,-5.0116 h 7.1964 v -3.8876 h -7.2239 z"
                       inkscape:connector-curvature="0" />
                  </g>
                </g>
              </g>
            </g>
          </g>
        </g>
      </g>
    </g>
  </g>
</svg>
